<svg xmlns="http://www.w3.org/2000/svg" viewBox="0 0 1600 640" preserveAspectRatio="xMidYMax slice" fill="none" stroke="#14503A" stroke-linecap="round" stroke-linejoin="round"><g stroke-opacity="0.300" stroke-width="1.59" transform="rotate(-1.40 -149.7 73.1)"><path d="M-157.7,73.1 Q-158.6,57.6 -149.7,57.9 Q-139.2,57.6 -141.7,73.1"/><circle cx="-149.7" cy="53.3" r="3.5"/></g><g stroke-opacity="0.300" stroke-width="1.55" transform="rotate(-0.60 -112.7 75.1)"><path d="M-118.0,75.1 Q-118.8,61.9 -112.7,62.2 Q-106.1,61.9 -107.4,75.1"/><circle cx="-112.7" cy="57.4" r="3.7"/></g><g stroke-opacity="0.300" stroke-width="1.57" transform="rotate(-2.22 -97.7 66.3)"><path d="M-105.3,66.3 Q-102.8,54.9 -97.7,55.1 Q-87.7,54.9 -90.2,66.3"/><circle cx="-97.7" cy="48.9" r="4.8"/></g><g stroke-opacity="0.300" stroke-width="1.60" transform="rotate(3.87 -65.4 64.3)"><path d="M-72.2,64.3 Q-69.1,50.6 -65.4,50.8 Q-55.8,50.6 -58.5,64.3"/><circle cx="-65.4" cy="45.5" r="5.1"/></g><g stroke-opacity="0.300" stroke-width="1.55" transform="rotate(0.97 -48.5 64.0)"><path d="M-54.4,64.0 Q-56.4,47.0 -48.5,47.4 Q-42.9,47.0 -42.5,64.0"/><circle cx="-48.5" cy="43.5" r="3.0"/></g><g stroke-opacity="0.300" stroke-width="1.55" transform="rotate(-1.24 -24.9 66.9)"><path d="M-32.7,66.9 Q-34.2,50.3 -24.9,50.6 Q-19.0,50.3 -17.1,66.9"/><circle cx="-24.9" cy="45.9" r="4.3"/></g><g stroke-opacity="0.300" stroke-width="1.58" transform="rotate(-0.25 1.6 67.1)"><path d="M-5.2,67.1 Q-2.7,51.2 1.6,51.5 Q6.3,51.2 8.4,67.1"/><circle cx="1.6" cy="44.8" r="5.2"/></g><g stroke-opacity="0.300" stroke-width="1.57" transform="rotate(-0.09 27.8 68.9)"><path d="M21.8,68.9 Q20.2,50.7 27.8,51.1 Q32.6,50.7 33.8,68.9"/><circle cx="27.8" cy="44.5" r="4.5"/></g><g stroke-opacity="0.300" stroke-width="1.58" transform="rotate(-2.56 49.4 65.2)"><path d="M40.4,65.2 Q39.5,47.9 49.4,48.3 Q56.9,47.9 58.5,65.2"/><circle cx="49.4" cy="41.3" r="5.3"/></g><g stroke-opacity="0.300" stroke-width="1.59" transform="rotate(3.66 84.3 64.4)"><path d="M77.0,64.4 Q74.5,46.3 84.3,46.6 Q94.3,46.3 91.6,64.4"/><circle cx="84.3" cy="42.0" r="3.7"/></g><g stroke-opacity="0.300" stroke-width="1.58" transform="rotate(-0.59 114.2 74.6)"><path d="M106.2,74.6 Q108.5,55.7 114.2,56.1 Q123.0,55.7 122.2,74.6"/><circle cx="114.2" cy="51.3" r="4.7"/></g><g stroke-opacity="0.300" stroke-width="1.55" transform="rotate(-1.83 131.9 73.8)"><path d="M126.5,73.8 Q124.6,60.9 131.9,61.1 Q134.8,60.9 137.2,73.8"/><circle cx="131.9" cy="54.8" r="4.5"/></g><g stroke-opacity="0.300" stroke-width="1.59" transform="rotate(-0.36 150.8 72.5)"><path d="M143.4,72.5 Q143.1,53.4 150.8,53.8 Q158.9,53.4 158.1,72.5"/><circle cx="150.8" cy="47.5" r="4.5"/></g><g stroke-opacity="0.300" stroke-width="1.55" transform="rotate(-1.26 190.4 70.0)"><path d="M185.8,70.0 Q184.8,54.5 190.4,54.8 Q195.7,54.5 195.1,70.0"/><circle cx="190.4" cy="49.8" r="4.0"/></g><g stroke-opacity="0.300" stroke-width="1.57" transform="rotate(-2.98 216.3 64.3)"><path d="M209.8,64.3 Q210.1,52.7 216.3,53.0 Q224.5,52.7 222.8,64.3"/><circle cx="216.3" cy="48.5" r="3.2"/></g><g stroke-opacity="0.300" stroke-width="1.59" transform="rotate(0.31 235.0 70.7)"><path d="M228.2,70.7 Q225.7,48.8 235.0,49.2 Q242.0,48.8 241.8,70.7"/><circle cx="235.0" cy="45.7" r="3.7"/></g><g stroke-opacity="0.300" stroke-width="1.59" transform="rotate(3.44 257.3 65.3)"><path d="M248.0,65.3 Q249.4,45.8 257.3,46.2 Q265.0,45.8 266.6,65.3"/><circle cx="257.3" cy="42.1" r="3.6"/></g><g stroke-opacity="0.300" stroke-width="1.58" transform="rotate(0.92 285.0 74.9)"><path d="M279.3,74.9 Q282.0,63.6 285.0,63.8 Q288.3,63.6 290.7,74.9"/><circle cx="285.0" cy="58.6" r="4.0"/></g><g stroke-opacity="0.300" stroke-width="1.56" transform="rotate(3.52 303.9 76.4)"><path d="M297.4,76.4 Q297.2,59.0 303.9,59.4 Q311.2,59.0 310.5,76.4"/><circle cx="303.9" cy="53.7" r="4.0"/></g><g stroke-opacity="0.300" stroke-width="1.54" transform="rotate(0.70 328.6 70.5)"><path d="M323.3,70.5 Q323.0,58.5 328.6,58.8 Q332.3,58.5 333.9,70.5"/><circle cx="328.6" cy="53.3" r="3.9"/></g><g stroke-opacity="0.300" stroke-width="1.60" transform="rotate(-0.70 367.3 71.3)"><path d="M360.2,71.3 Q360.1,51.9 367.3,52.3 Q375.8,51.9 374.3,71.3"/><circle cx="367.3" cy="45.2" r="5.0"/></g><g stroke-opacity="0.300" stroke-width="1.58" transform="rotate(0.10 386.7 72.0)"><path d="M377.2,72.0 Q377.3,53.6 386.7,53.9 Q394.5,53.6 396.2,72.0"/><circle cx="386.7" cy="50.3" r="3.7"/></g><g stroke-opacity="0.300" stroke-width="1.58" transform="rotate(1.71 403.9 74.6)"><path d="M398.3,74.6 Q397.9,63.3 403.9,63.5 Q411.9,63.3 409.6,74.6"/><circle cx="403.9" cy="59.9" r="3.8"/></g><g stroke-opacity="0.300" stroke-width="1.58" transform="rotate(-3.00 436.0 67.9)"><path d="M427.7,67.9 Q425.3,52.5 436.0,52.8 Q444.2,52.5 444.2,67.9"/><circle cx="436.0" cy="47.0" r="4.5"/></g><g stroke-opacity="0.300" stroke-width="1.60" transform="rotate(-1.01 463.7 75.6)"><path d="M454.8,75.6 Q454.2,53.9 463.7,54.3 Q471.3,53.9 472.7,75.6"/><circle cx="463.7" cy="48.7" r="4.1"/></g><g stroke-opacity="0.300" stroke-width="1.58" transform="rotate(2.54 483.9 67.3)"><path d="M477.3,67.3 Q474.8,52.1 483.9,52.4 Q488.1,52.1 490.6,67.3"/><circle cx="483.9" cy="46.5" r="5.4"/></g><g stroke-opacity="0.300" stroke-width="1.59" transform="rotate(2.83 518.3 71.8)"><path d="M508.7,71.8 Q507.2,51.5 518.3,51.9 Q526.8,51.5 528.0,71.8"/><circle cx="518.3" cy="44.6" r="5.3"/></g><g stroke-opacity="0.300" stroke-width="1.56" transform="rotate(-3.93 536.4 64.1)"><path d="M530.5,64.1 Q528.4,48.5 536.4,48.8 Q539.8,48.5 542.2,64.1"/><circle cx="536.4" cy="42.7" r="4.4"/></g><g stroke-opacity="0.300" stroke-width="1.60" transform="rotate(-3.37 556.7 68.2)"><path d="M550.8,68.2 Q549.3,50.3 556.7,50.7 Q560.6,50.3 562.7,68.2"/><circle cx="556.7" cy="46.3" r="4.4"/></g><g stroke-opacity="0.300" stroke-width="1.58" transform="rotate(-0.34 590.3 65.0)"><path d="M581.6,65.0 Q579.2,52.9 590.3,53.1 Q600.5,52.9 598.9,65.0"/><circle cx="590.3" cy="47.8" r="5.1"/></g><g stroke-opacity="0.300" stroke-width="1.58" transform="rotate(0.32 610.7 71.9)"><path d="M602.0,71.9 Q600.7,61.1 610.7,61.3 Q621.2,61.1 619.4,71.9"/><circle cx="610.7" cy="55.2" r="4.1"/></g><g stroke-opacity="0.300" stroke-width="1.58" transform="rotate(-0.20 640.0 76.2)"><path d="M634.8,76.2 Q636.7,60.1 640.0,60.4 Q647.3,60.1 645.2,76.2"/><circle cx="640.0" cy="55.8" r="3.4"/></g><g stroke-opacity="0.300" stroke-width="1.57" transform="rotate(2.50 665.9 65.8)"><path d="M657.5,65.8 Q658.3,48.3 665.9,48.6 Q672.0,48.3 674.4,65.8"/><circle cx="665.9" cy="44.9" r="3.9"/></g><g stroke-opacity="0.300" stroke-width="1.57" transform="rotate(1.08 691.1 74.5)"><path d="M684.8,74.5 Q687.2,62.0 691.1,62.2 Q697.6,62.0 697.3,74.5"/><circle cx="691.1" cy="56.5" r="4.7"/></g><g stroke-opacity="0.300" stroke-width="1.55" transform="rotate(3.49 708.2 71.4)"><path d="M700.2,71.4 Q701.4,58.8 708.2,59.1 Q716.5,58.8 716.2,71.4"/><circle cx="708.2" cy="55.5" r="3.0"/></g><g stroke-opacity="0.300" stroke-width="1.56" transform="rotate(3.95 747.6 67.2)"><path d="M742.7,67.2 Q743.5,56.6 747.6,56.8 Q754.7,56.6 752.4,67.2"/><circle cx="747.6" cy="50.8" r="4.5"/></g><g stroke-opacity="0.300" stroke-width="1.59" transform="rotate(0.34 771.0 68.7)"><path d="M765.5,68.7 Q763.0,49.1 771.0,49.5 Q773.8,49.1 776.5,68.7"/><circle cx="771.0" cy="43.2" r="4.4"/></g><g stroke-opacity="0.300" stroke-width="1.59" transform="rotate(0.67 789.1 67.4)"><path d="M781.8,67.4 Q781.2,52.0 789.1,52.3 Q798.0,52.0 796.4,67.4"/><circle cx="789.1" cy="47.7" r="4.4"/></g><g stroke-opacity="0.300" stroke-width="1.59" transform="rotate(3.06 811.6 66.3)"><path d="M805.8,66.3 Q806.0,50.1 811.6,50.5 Q820.3,50.1 817.4,66.3"/><circle cx="811.6" cy="43.9" r="4.5"/></g><g stroke-opacity="0.300" stroke-width="1.55" transform="rotate(2.67 838.1 67.0)"><path d="M831.3,67.0 Q831.1,54.2 838.1,54.5 Q844.8,54.2 845.0,67.0"/><circle cx="838.1" cy="49.4" r="3.5"/></g><g stroke-opacity="0.300" stroke-width="1.55" transform="rotate(-1.91 867.6 74.6)"><path d="M862.6,74.6 Q863.0,63.4 867.6,63.6 Q874.2,63.4 872.5,74.6"/><circle cx="867.6" cy="58.5" r="3.7"/></g><g stroke-opacity="0.300" stroke-width="1.60" transform="rotate(2.60 893.2 75.1)"><path d="M884.0,75.1 Q882.1,53.6 893.2,54.0 Q904.0,53.6 902.5,75.1"/><circle cx="893.2" cy="49.5" r="4.2"/></g><g stroke-opacity="0.300" stroke-width="1.55" transform="rotate(-2.79 918.5 75.8)"><path d="M912.4,75.8 Q912.1,61.4 918.5,61.7 Q925.1,61.4 924.7,75.8"/><circle cx="918.5" cy="57.7" r="2.9"/></g><g stroke-opacity="0.300" stroke-width="1.57" transform="rotate(-2.35 941.7 76.2)"><path d="M935.0,76.2 Q934.4,62.7 941.7,63.0 Q949.7,62.7 948.4,76.2"/><circle cx="941.7" cy="56.0" r="5.1"/></g><g stroke-opacity="0.300" stroke-width="1.60" transform="rotate(-2.85 961.4 64.5)"><path d="M954.9,64.5 Q954.5,49.2 961.4,49.5 Q968.5,49.2 967.8,64.5"/><circle cx="961.4" cy="44.0" r="4.7"/></g><g stroke-opacity="0.300" stroke-width="1.55" transform="rotate(-1.81 993.6 67.7)"><path d="M989.2,67.7 Q987.9,54.3 993.6,54.6 Q998.4,54.3 998.0,67.7"/><circle cx="993.6" cy="49.2" r="3.9"/></g><g stroke-opacity="0.300" stroke-width="1.54" transform="rotate(2.21 1011.1 70.4)"><path d="M1004.4,70.4 Q1005.1,58.6 1011.1,58.8 Q1016.0,58.6 1017.8,70.4"/><circle cx="1011.1" cy="54.4" r="4.2"/></g><g stroke-opacity="0.300" stroke-width="1.60" transform="rotate(2.89 1047.4 66.6)"><path d="M1038.6,66.6 Q1040.2,45.6 1047.4,46.0 Q1055.8,45.6 1056.2,66.6"/><circle cx="1047.4" cy="40.1" r="4.1"/></g><g stroke-opacity="0.300" stroke-width="1.60" transform="rotate(-2.55 1067.9 75.7)"><path d="M1058.0,75.7 Q1059.5,53.1 1067.9,53.6 Q1078.5,53.1 1077.9,75.7"/><circle cx="1067.9" cy="46.4" r="5.3"/></g><g stroke-opacity="0.300" stroke-width="1.58" transform="rotate(1.67 1093.5 65.9)"><path d="M1084.2,65.9 Q1085.5,48.8 1093.5,49.2 Q1102.7,48.8 1102.8,65.9"/><circle cx="1093.5" cy="43.5" r="5.3"/></g><g stroke-opacity="0.300" stroke-width="1.57" transform="rotate(-3.76 1123.5 67.8)"><path d="M1115.7,67.8 Q1113.2,54.7 1123.5,55.0 Q1129.9,54.7 1131.4,67.8"/><circle cx="1123.5" cy="49.9" r="4.4"/></g><g stroke-opacity="0.300" stroke-width="1.60" transform="rotate(0.48 1143.7 68.1)"><path d="M1133.2,68.1 Q1130.6,50.2 1143.7,50.5 Q1153.9,50.2 1154.2,68.1"/><circle cx="1143.7" cy="42.7" r="5.9"/></g><g stroke-opacity="0.300" stroke-width="1.58" transform="rotate(0.37 1174.7 72.7)"><path d="M1169.2,72.7 Q1167.1,56.8 1174.7,57.1 Q1180.4,56.8 1180.2,72.7"/><circle cx="1174.7" cy="50.7" r="4.9"/></g><g stroke-opacity="0.300" stroke-width="1.58" transform="rotate(3.48 1192.2 71.9)"><path d="M1184.1,71.9 Q1182.5,58.0 1192.2,58.3 Q1200.2,58.0 1200.4,71.9"/><circle cx="1192.2" cy="53.4" r="3.6"/></g><g stroke-opacity="0.300" stroke-width="1.58" transform="rotate(-2.23 1226.0 70.8)"><path d="M1216.7,70.8 Q1216.3,50.5 1226.0,50.9 Q1234.1,50.5 1235.3,70.8"/><circle cx="1226.0" cy="43.6" r="5.2"/></g><g stroke-opacity="0.300" stroke-width="1.55" transform="rotate(1.84 1238.7 75.2)"><path d="M1232.8,75.2 Q1231.0,63.9 1238.7,64.1 Q1244.6,63.9 1244.6,75.2"/><circle cx="1238.7" cy="60.5" r="3.7"/></g><g stroke-opacity="0.300" stroke-width="1.56" transform="rotate(-3.46 1266.9 63.8)"><path d="M1259.9,63.8 Q1260.3,53.7 1266.9,53.9 Q1274.2,53.7 1273.8,63.8"/><circle cx="1266.9" cy="48.8" r="4.7"/></g><g stroke-opacity="0.300" stroke-width="1.55" transform="rotate(-0.63 1299.3 71.1)"><path d="M1293.7,71.1 Q1295.1,56.2 1299.3,56.5 Q1306.4,56.2 1304.9,71.1"/><circle cx="1299.3" cy="52.2" r="3.7"/></g><g stroke-opacity="0.300" stroke-width="1.60" transform="rotate(0.94 1329.3 69.3)"><path d="M1322.0,69.3 Q1319.7,46.3 1329.3,46.7 Q1336.0,46.3 1336.5,69.3"/><circle cx="1329.3" cy="41.9" r="4.7"/></g><g stroke-opacity="0.300" stroke-width="1.56" transform="rotate(-3.81 1340.1 66.4)"><path d="M1332.9,66.4 Q1330.5,49.4 1340.1,49.7 Q1346.0,49.4 1347.2,66.4"/><circle cx="1340.1" cy="45.0" r="4.3"/></g><g stroke-opacity="0.300" stroke-width="1.56" transform="rotate(2.58 1367.8 72.3)"><path d="M1359.7,72.3 Q1359.0,61.6 1367.8,61.8 Q1376.7,61.6 1375.9,72.3"/><circle cx="1367.8" cy="57.0" r="3.6"/></g><g stroke-opacity="0.300" stroke-width="1.59" transform="rotate(0.72 1390.5 66.9)"><path d="M1382.2,66.9 Q1385.0,50.1 1390.5,50.5 Q1398.8,50.1 1398.7,66.9"/><circle cx="1390.5" cy="44.7" r="5.6"/></g><g stroke-opacity="0.300" stroke-width="1.55" transform="rotate(-0.74 1425.4 72.6)"><path d="M1418.3,72.6 Q1417.2,62.4 1425.4,62.6 Q1433.1,62.4 1432.6,72.6"/><circle cx="1425.4" cy="59.8" r="3.0"/></g><g stroke-opacity="0.300" stroke-width="1.58" transform="rotate(-2.63 1444.0 69.8)"><path d="M1437.9,69.8 Q1435.2,56.4 1444.0,56.7 Q1452.2,56.4 1450.1,69.8"/><circle cx="1444.0" cy="52.1" r="4.2"/></g><g stroke-opacity="0.300" stroke-width="1.54" transform="rotate(-3.66 1467.4 73.0)"><path d="M1460.8,73.0 Q1460.2,64.3 1467.4,64.5 Q1473.3,64.3 1473.9,73.0"/><circle cx="1467.4" cy="59.6" r="3.6"/></g><g stroke-opacity="0.300" stroke-width="1.60" transform="rotate(-0.17 1493.0 67.3)"><path d="M1483.1,67.3 Q1481.0,46.5 1493.0,46.9 Q1503.2,46.5 1502.9,67.3"/><circle cx="1493.0" cy="40.2" r="5.2"/></g><g stroke-opacity="0.300" stroke-width="1.59" transform="rotate(-1.27 1520.0 64.0)"><path d="M1509.7,64.0 Q1511.2,49.9 1520.0,50.1 Q1528.7,49.9 1530.2,64.0"/><circle cx="1520.0" cy="44.3" r="5.5"/></g><g stroke-opacity="0.300" stroke-width="1.56" transform="rotate(3.40 1543.6 67.6)"><path d="M1535.4,67.6 Q1535.7,50.7 1543.6,51.0 Q1549.3,50.7 1551.7,67.6"/><circle cx="1543.6" cy="47.0" r="3.2"/></g><g stroke-opacity="0.300" stroke-width="1.57" transform="rotate(0.71 1576.8 72.2)"><path d="M1568.6,72.2 Q1567.0,60.6 1576.8,60.9 Q1585.3,60.6 1585.0,72.2"/><circle cx="1576.8" cy="55.4" r="4.2"/></g><g stroke-opacity="0.300" stroke-width="1.57" transform="rotate(0.10 1594.2 67.0)"><path d="M1587.2,67.0 Q1589.1,54.3 1594.2,54.6 Q1602.7,54.3 1601.2,67.0"/><circle cx="1594.2" cy="49.4" r="3.8"/></g><g stroke-opacity="0.300" stroke-width="1.58" transform="rotate(-3.50 1625.5 64.2)"><path d="M1620.2,64.2 Q1617.9,49.2 1625.5,49.5 Q1629.6,49.2 1630.7,64.2"/><circle cx="1625.5" cy="43.5" r="4.4"/></g><g stroke-opacity="0.300" stroke-width="1.56" transform="rotate(-0.06 1651.0 71.9)"><path d="M1644.8,71.9 Q1643.5,59.6 1651.0,59.8 Q1657.8,59.6 1657.2,71.9"/><circle cx="1651.0" cy="54.5" r="3.9"/></g><g stroke-opacity="0.300" stroke-width="1.57" transform="rotate(0.17 1680.5 68.8)"><path d="M1673.2,68.8 Q1673.9,52.1 1680.5,52.4 Q1690.5,52.1 1687.8,68.8"/><circle cx="1680.5" cy="46.5" r="4.0"/></g><g stroke-opacity="0.300" stroke-width="1.57" transform="rotate(-0.20 1703.1 71.6)"><path d="M1697.8,71.6 Q1696.4,56.5 1703.1,56.8 Q1706.7,56.5 1708.5,71.6"/><circle cx="1703.1" cy="52.0" r="3.4"/></g><g stroke-opacity="0.300" stroke-width="1.55" transform="rotate(2.14 1732.6 74.1)"><path d="M1725.6,74.1 Q1726.5,59.1 1732.6,59.4 Q1739.5,59.1 1739.6,74.1"/><circle cx="1732.6" cy="55.8" r="3.4"/></g><g stroke-opacity="0.300" stroke-width="1.58" transform="rotate(1.70 1746.2 71.1)"><path d="M1737.3,71.1 Q1739.1,50.4 1746.2,50.8 Q1755.8,50.4 1755.2,71.1"/><circle cx="1746.2" cy="44.9" r="5.2"/></g><g stroke-opacity="0.387" stroke-width="1.65" transform="rotate(-1.77 -133.9 140.9)"><path d="M-145.9,140.9 Q-145.9,114.3 -133.9,114.9 Q-120.6,114.3 -121.9,140.9"/><circle cx="-133.9" cy="108.0" r="5.6"/></g><g stroke-opacity="0.387" stroke-width="1.60" transform="rotate(-3.42 -109.2 143.9)"><path d="M-116.9,143.9 Q-115.9,123.9 -109.2,124.3 Q-102.1,123.9 -101.5,143.9"/><circle cx="-109.2" cy="118.0" r="4.3"/></g><g stroke-opacity="0.387" stroke-width="1.60" transform="rotate(1.17 -69.1 137.9)"><path d="M-78.0,137.9 Q-76.5,120.8 -69.1,121.2 Q-59.9,120.8 -60.2,137.9"/><circle cx="-69.1" cy="115.5" r="4.1"/></g><g stroke-opacity="0.387" stroke-width="1.61" transform="rotate(-1.94 -31.0 132.4)"><path d="M-40.6,132.4 Q-41.9,114.7 -31.0,115.1 Q-24.7,114.7 -21.4,132.4"/><circle cx="-31.0" cy="110.5" r="4.4"/></g><g stroke-opacity="0.387" stroke-width="1.60" transform="rotate(2.61 -5.9 135.8)"><path d="M-16.7,135.8 Q-13.7,116.9 -5.9,117.3 Q7.5,116.9 4.9,135.8"/><circle cx="-5.9" cy="112.1" r="5.3"/></g><g stroke-opacity="0.387" stroke-width="1.66" transform="rotate(-2.83 22.3 145.1)"><path d="M12.1,145.1 Q12.9,129.0 22.3,129.3 Q30.1,129.0 32.6,145.1"/><circle cx="22.3" cy="121.8" r="7.5"/></g><g stroke-opacity="0.387" stroke-width="1.59" transform="rotate(2.83 56.3 133.2)"><path d="M46.7,133.2 Q45.1,118.8 56.3,119.1 Q63.1,118.8 65.9,133.2"/><circle cx="56.3" cy="114.3" r="4.7"/></g><g stroke-opacity="0.387" stroke-width="1.58" transform="rotate(2.46 93.4 135.5)"><path d="M84.7,135.5 Q85.9,116.6 93.4,117.0 Q102.0,116.6 102.2,135.5"/><circle cx="93.4" cy="113.3" r="3.4"/></g><g stroke-opacity="0.387" stroke-width="1.66" transform="rotate(-0.84 127.6 142.3)"><path d="M116.7,142.3 Q115.9,121.9 127.6,122.3 Q138.7,121.9 138.5,142.3"/><circle cx="127.6" cy="114.3" r="5.3"/></g><g stroke-opacity="0.387" stroke-width="1.62" transform="rotate(2.16 164.7 135.5)"><path d="M157.1,135.5 Q158.9,120.9 164.7,121.1 Q171.1,120.9 172.3,135.5"/><circle cx="164.7" cy="115.8" r="4.4"/></g><g stroke-opacity="0.387" stroke-width="1.64" transform="rotate(-0.22 193.0 141.2)"><path d="M185.4,141.2 Q186.5,116.5 193.0,117.0 Q203.4,116.5 200.6,141.2"/><circle cx="193.0" cy="110.0" r="5.8"/></g><g stroke-opacity="0.387" stroke-width="1.63" transform="rotate(3.48 223.5 140.2)"><path d="M213.8,140.2 Q213.1,122.2 223.5,122.6 Q230.6,122.2 233.2,140.2"/><circle cx="223.5" cy="115.5" r="5.8"/></g><g stroke-opacity="0.387" stroke-width="1.64" transform="rotate(0.81 245.5 136.0)"><path d="M233.4,136.0 Q229.7,115.6 245.5,116.0 Q254.3,115.6 257.7,136.0"/><circle cx="245.5" cy="108.8" r="7.0"/></g><g stroke-opacity="0.387" stroke-width="1.63" transform="rotate(-1.00 289.0 141.5)"><path d="M278.3,141.5 Q280.3,123.7 289.0,124.0 Q298.8,123.7 299.7,141.5"/><circle cx="289.0" cy="117.5" r="5.3"/></g><g stroke-opacity="0.387" stroke-width="1.63" transform="rotate(3.12 323.3 134.4)"><path d="M312.0,134.4 Q314.5,109.9 323.3,110.4 Q337.1,109.9 334.6,134.4"/><circle cx="323.3" cy="102.9" r="5.6"/></g><g stroke-opacity="0.387" stroke-width="1.61" transform="rotate(-3.31 355.7 135.2)"><path d="M347.5,135.2 Q349.1,115.6 355.7,116.0 Q363.2,115.6 363.9,135.2"/><circle cx="355.7" cy="111.5" r="4.1"/></g><g stroke-opacity="0.387" stroke-width="1.65" transform="rotate(3.30 378.9 131.9)"><path d="M371.3,131.9 Q367.7,113.7 378.9,114.1 Q384.7,113.7 386.5,131.9"/><circle cx="378.9" cy="106.6" r="6.1"/></g><g stroke-opacity="0.387" stroke-width="1.66" transform="rotate(0.91 422.1 148.0)"><path d="M408.3,148.0 Q406.4,127.0 422.1,127.4 Q436.1,127.0 435.9,148.0"/><circle cx="422.1" cy="122.0" r="4.9"/></g><g stroke-opacity="0.387" stroke-width="1.66" transform="rotate(2.28 455.6 138.1)"><path d="M443.5,138.1 Q444.2,113.3 455.6,113.8 Q471.9,113.3 467.8,138.1"/><circle cx="455.6" cy="105.0" r="7.8"/></g><g stroke-opacity="0.387" stroke-width="1.66" transform="rotate(1.08 486.7 138.1)"><path d="M473.6,138.1 Q474.3,119.3 486.7,119.6 Q499.6,119.3 499.7,138.1"/><circle cx="486.7" cy="113.0" r="6.0"/></g><g stroke-opacity="0.387" stroke-width="1.63" transform="rotate(-1.62 513.3 147.4)"><path d="M501.2,147.4 Q499.4,125.0 513.3,125.5 Q525.5,125.0 525.3,147.4"/><circle cx="513.3" cy="119.7" r="4.3"/></g><g stroke-opacity="0.387" stroke-width="1.63" transform="rotate(-3.19 553.6 132.1)"><path d="M543.1,132.1 Q541.0,117.1 553.6,117.4 Q561.9,117.1 564.2,132.1"/><circle cx="553.6" cy="111.3" r="4.3"/></g><g stroke-opacity="0.387" stroke-width="1.64" transform="rotate(-1.68 570.3 140.4)"><path d="M561.0,140.4 Q559.5,123.9 570.3,124.2 Q576.3,123.9 579.6,140.4"/><circle cx="570.3" cy="117.0" r="5.5"/></g><g stroke-opacity="0.387" stroke-width="1.59" transform="rotate(0.57 601.9 134.3)"><path d="M594.5,134.3 Q592.4,118.9 601.9,119.2 Q610.8,118.9 609.3,134.3"/><circle cx="601.9" cy="114.3" r="3.6"/></g><g stroke-opacity="0.387" stroke-width="1.59" transform="rotate(1.68 642.2 144.9)"><path d="M632.8,144.9 Q634.8,129.3 642.2,129.6 Q651.7,129.3 651.6,144.9"/><circle cx="642.2" cy="122.1" r="5.3"/></g><g stroke-opacity="0.387" stroke-width="1.64" transform="rotate(-2.28 679.3 137.1)"><path d="M670.5,137.1 Q670.3,118.1 679.3,118.5 Q687.1,118.1 688.1,137.1"/><circle cx="679.3" cy="110.1" r="6.8"/></g><g stroke-opacity="0.387" stroke-width="1.64" transform="rotate(1.24 704.1 134.1)"><path d="M693.2,134.1 Q696.5,110.1 704.1,110.6 Q713.3,110.1 715.0,134.1"/><circle cx="704.1" cy="102.9" r="6.7"/></g><g stroke-opacity="0.387" stroke-width="1.64" transform="rotate(2.22 734.7 146.8)"><path d="M721.6,146.8 Q725.4,131.1 734.7,131.4 Q750.2,131.1 747.8,146.8"/><circle cx="734.7" cy="122.8" r="7.3"/></g><g stroke-opacity="0.387" stroke-width="1.60" transform="rotate(-0.68 769.8 145.5)"><path d="M761.7,145.5 Q764.8,128.9 769.8,129.2 Q780.8,128.9 777.9,145.5"/><circle cx="769.8" cy="124.7" r="4.1"/></g><g stroke-opacity="0.387" stroke-width="1.64" transform="rotate(-2.71 797.4 143.9)"><path d="M786.0,143.9 Q784.7,123.5 797.4,123.9 Q809.9,123.5 808.8,143.9"/><circle cx="797.4" cy="116.6" r="5.0"/></g><g stroke-opacity="0.387" stroke-width="1.64" transform="rotate(1.11 834.7 146.8)"><path d="M827.2,146.8 Q828.1,131.3 834.7,131.6 Q842.5,131.3 842.2,146.8"/><circle cx="834.7" cy="126.5" r="5.4"/></g><g stroke-opacity="0.387" stroke-width="1.65" transform="rotate(-1.51 870.6 133.1)"><path d="M857.9,133.1 Q854.3,104.1 870.6,104.6 Q879.7,104.1 883.3,133.1"/><circle cx="870.6" cy="94.3" r="7.4"/></g><g stroke-opacity="0.387" stroke-width="1.65" transform="rotate(-1.40 903.2 144.2)"><path d="M890.1,144.2 Q888.7,115.5 903.2,116.1 Q913.2,115.5 916.3,144.2"/><circle cx="903.2" cy="108.6" r="5.8"/></g><g stroke-opacity="0.387" stroke-width="1.61" transform="rotate(2.59 931.0 141.0)"><path d="M922.5,141.0 Q924.6,121.7 931.0,122.0 Q939.2,121.7 939.6,141.0"/><circle cx="931.0" cy="116.8" r="4.1"/></g><g stroke-opacity="0.387" stroke-width="1.64" transform="rotate(-0.58 960.3 138.2)"><path d="M951.9,138.2 Q950.0,117.4 960.3,117.9 Q966.7,117.4 968.6,138.2"/><circle cx="960.3" cy="111.9" r="6.0"/></g><g stroke-opacity="0.387" stroke-width="1.64" transform="rotate(0.69 999.1 131.6)"><path d="M986.5,131.6 Q983.8,113.2 999.1,113.5 Q1008.6,113.2 1011.8,131.6"/><circle cx="999.1" cy="108.7" r="5.1"/></g><g stroke-opacity="0.387" stroke-width="1.62" transform="rotate(-2.93 1030.9 138.6)"><path d="M1023.2,138.6 Q1026.2,121.4 1030.9,121.8 Q1036.8,121.4 1038.7,138.6"/><circle cx="1030.9" cy="115.1" r="6.2"/></g><g stroke-opacity="0.387" stroke-width="1.62" transform="rotate(3.58 1057.4 140.2)"><path d="M1049.5,140.2 Q1047.4,122.8 1057.4,123.1 Q1067.6,122.8 1065.2,140.2"/><circle cx="1057.4" cy="115.3" r="6.3"/></g><g stroke-opacity="0.387" stroke-width="1.63" transform="rotate(-0.96 1098.1 133.5)"><path d="M1090.5,133.5 Q1089.1,108.6 1098.1,109.1 Q1102.5,108.6 1105.6,133.5"/><circle cx="1098.1" cy="102.2" r="5.9"/></g><g stroke-opacity="0.387" stroke-width="1.60" transform="rotate(0.10 1129.2 139.5)"><path d="M1120.9,139.5 Q1121.7,125.0 1129.2,125.3 Q1137.9,125.0 1137.5,139.5"/><circle cx="1129.2" cy="119.7" r="4.1"/></g><g stroke-opacity="0.387" stroke-width="1.64" transform="rotate(-2.32 1156.9 147.3)"><path d="M1145.9,147.3 Q1142.7,126.3 1156.9,126.7 Q1171.3,126.3 1168.0,147.3"/><circle cx="1156.9" cy="119.0" r="6.6"/></g><g stroke-opacity="0.387" stroke-width="1.64" transform="rotate(-3.52 1189.2 140.0)"><path d="M1179.5,140.0 Q1180.7,113.3 1189.2,113.8 Q1197.5,113.3 1199.0,140.0"/><circle cx="1189.2" cy="104.6" r="7.2"/></g><g stroke-opacity="0.387" stroke-width="1.62" transform="rotate(0.86 1228.0 140.9)"><path d="M1219.0,140.9 Q1215.7,118.2 1228.0,118.7 Q1235.4,118.2 1237.0,140.9"/><circle cx="1228.0" cy="110.5" r="5.8"/></g><g stroke-opacity="0.387" stroke-width="1.59" transform="rotate(-3.51 1263.1 144.7)"><path d="M1255.6,144.7 Q1258.1,132.1 1263.1,132.4 Q1273.1,132.1 1270.5,144.7"/><circle cx="1263.1" cy="126.9" r="5.0"/></g><g stroke-opacity="0.387" stroke-width="1.59" transform="rotate(-2.92 1299.7 138.6)"><path d="M1293.7,138.6 Q1296.1,116.0 1299.7,116.5 Q1304.0,116.0 1305.7,138.6"/><circle cx="1299.7" cy="109.8" r="5.3"/></g><g stroke-opacity="0.387" stroke-width="1.61" transform="rotate(0.19 1330.2 142.3)"><path d="M1319.9,142.3 Q1320.9,123.2 1330.2,123.6 Q1340.7,123.2 1340.5,142.3"/><circle cx="1330.2" cy="117.4" r="4.7"/></g><g stroke-opacity="0.387" stroke-width="1.59" transform="rotate(-1.36 1356.8 143.3)"><path d="M1348.3,143.3 Q1350.1,130.3 1356.8,130.6 Q1364.3,130.3 1365.3,143.3"/><circle cx="1356.8" cy="125.5" r="4.0"/></g><g stroke-opacity="0.387" stroke-width="1.60" transform="rotate(3.22 1382.8 140.0)"><path d="M1374.0,140.0 Q1374.3,124.1 1382.8,124.4 Q1389.6,124.1 1391.6,140.0"/><circle cx="1382.8" cy="119.5" r="3.9"/></g><g stroke-opacity="0.387" stroke-width="1.64" transform="rotate(3.72 1414.2 144.0)"><path d="M1404.4,144.0 Q1403.7,127.6 1414.2,127.9 Q1425.4,127.6 1424.0,144.0"/><circle cx="1414.2" cy="122.8" r="4.8"/></g><g stroke-opacity="0.387" stroke-width="1.63" transform="rotate(3.28 1462.6 135.2)"><path d="M1451.0,135.2 Q1451.9,117.1 1462.6,117.5 Q1472.9,117.1 1474.3,135.2"/><circle cx="1462.6" cy="110.1" r="4.9"/></g><g stroke-opacity="0.387" stroke-width="1.65" transform="rotate(-1.82 1482.6 135.4)"><path d="M1472.0,135.4 Q1469.7,106.6 1482.6,107.2 Q1491.7,106.6 1493.2,135.4"/><circle cx="1482.6" cy="99.2" r="6.9"/></g><g stroke-opacity="0.387" stroke-width="1.61" transform="rotate(-3.10 1524.9 143.3)"><path d="M1516.8,143.3 Q1519.2,130.2 1524.9,130.4 Q1530.1,130.2 1533.1,143.3"/><circle cx="1524.9" cy="122.7" r="6.0"/></g><g stroke-opacity="0.387" stroke-width="1.65" transform="rotate(-2.55 1560.4 138.2)"><path d="M1547.4,138.2 Q1545.3,115.7 1560.4,116.2 Q1572.8,115.7 1573.5,138.2"/><circle cx="1560.4" cy="106.6" r="6.9"/></g><g stroke-opacity="0.387" stroke-width="1.59" transform="rotate(3.10 1587.0 138.3)"><path d="M1578.0,138.3 Q1577.5,116.2 1587.0,116.7 Q1596.3,116.2 1596.0,138.3"/><circle cx="1587.0" cy="111.0" r="5.3"/></g><g stroke-opacity="0.387" stroke-width="1.64" transform="rotate(2.71 1621.2 147.5)"><path d="M1612.9,147.5 Q1610.8,128.5 1621.2,128.9 Q1632.3,128.5 1629.6,147.5"/><circle cx="1621.2" cy="118.9" r="7.1"/></g><g stroke-opacity="0.387" stroke-width="1.66" transform="rotate(-2.84 1655.1 135.7)"><path d="M1646.3,135.7 Q1642.5,114.5 1655.1,114.9 Q1665.8,114.5 1664.0,135.7"/><circle cx="1655.1" cy="106.9" r="7.6"/></g><g stroke-opacity="0.387" stroke-width="1.63" transform="rotate(2.13 1685.2 134.9)"><path d="M1674.7,134.9 Q1677.6,115.0 1685.2,115.4 Q1694.1,115.0 1695.6,134.9"/><circle cx="1685.2" cy="107.4" r="5.9"/></g><g stroke-opacity="0.387" stroke-width="1.64" transform="rotate(-3.63 1713.7 143.9)"><path d="M1705.0,143.9 Q1703.2,120.9 1713.7,121.3 Q1722.9,120.9 1722.4,143.9"/><circle cx="1713.7" cy="114.1" r="5.2"/></g><g stroke-opacity="0.387" stroke-width="1.60" transform="rotate(-0.43 1744.4 139.2)"><path d="M1737.7,139.2 Q1734.7,126.3 1744.4,126.5 Q1748.2,126.3 1751.2,139.2"/><circle cx="1744.4" cy="121.1" r="4.3"/></g><g stroke-opacity="0.475" stroke-width="1.71" transform="rotate(-3.72 -143.0 209.2)"><path d="M-152.6,209.2 Q-149.7,180.2 -143.0,180.7 Q-137.1,180.2 -133.3,209.2"/><circle cx="-143.0" cy="171.9" r="7.2"/></g><g stroke-opacity="0.475" stroke-width="1.68" transform="rotate(-3.37 -84.6 214.4)"><path d="M-94.2,214.4 Q-98.6,195.2 -84.6,195.6 Q-76.3,195.2 -74.9,214.4"/><circle cx="-84.6" cy="186.9" r="8.3"/></g><g stroke-opacity="0.475" stroke-width="1.69" transform="rotate(-1.23 -45.5 207.3)"><path d="M-57.3,207.3 Q-60.6,187.3 -45.5,187.7 Q-30.3,187.3 -33.7,207.3"/><circle cx="-45.5" cy="179.4" r="7.2"/></g><g stroke-opacity="0.475" stroke-width="1.70" transform="rotate(1.03 -20.2 200.3)"><path d="M-32.3,200.3 Q-28.3,168.2 -20.2,168.8 Q-5.2,168.2 -8.0,200.3"/><circle cx="-20.2" cy="159.3" r="8.2"/></g><g stroke-opacity="0.475" stroke-width="1.69" transform="rotate(-0.16 23.1 201.9)"><path d="M11.2,201.9 Q9.5,172.6 23.1,173.2 Q34.0,172.6 35.0,201.9"/><circle cx="23.1" cy="164.8" r="6.9"/></g><g stroke-opacity="0.475" stroke-width="1.65" transform="rotate(1.51 68.1 201.9)"><path d="M58.2,201.9 Q62.1,186.7 68.1,187.0 Q81.0,186.7 77.9,201.9"/><circle cx="68.1" cy="180.5" r="4.8"/></g><g stroke-opacity="0.475" stroke-width="1.68" transform="rotate(-2.45 111.4 208.2)"><path d="M100.6,208.2 Q96.8,184.8 111.4,185.2 Q120.4,184.8 122.3,208.2"/><circle cx="111.4" cy="176.4" r="7.6"/></g><g stroke-opacity="0.475" stroke-width="1.70" transform="rotate(3.88 136.6 218.1)"><path d="M123.1,218.1 Q122.6,191.0 136.6,191.5 Q148.3,191.0 150.0,218.1"/><circle cx="136.6" cy="181.5" r="9.0"/></g><g stroke-opacity="0.475" stroke-width="1.67" transform="rotate(-2.12 178.1 199.7)"><path d="M166.7,199.7 Q164.0,175.0 178.1,175.5 Q186.6,175.0 189.5,199.7"/><circle cx="178.1" cy="167.5" r="7.4"/></g><g stroke-opacity="0.475" stroke-width="1.66" transform="rotate(0.32 217.2 210.4)"><path d="M204.8,210.4 Q205.4,190.5 217.2,190.9 Q227.4,190.5 229.7,210.4"/><circle cx="217.2" cy="181.4" r="7.7"/></g><g stroke-opacity="0.475" stroke-width="1.72" transform="rotate(3.92 269.2 207.2)"><path d="M252.9,207.2 Q257.7,171.3 269.2,172.0 Q288.8,171.3 285.5,207.2"/><circle cx="269.2" cy="163.9" r="6.7"/></g><g stroke-opacity="0.475" stroke-width="1.65" transform="rotate(-2.00 309.3 201.5)"><path d="M299.9,201.5 Q298.0,181.9 309.3,182.3 Q321.0,181.9 318.7,201.5"/><circle cx="309.3" cy="174.8" r="5.5"/></g><g stroke-opacity="0.475" stroke-width="1.70" transform="rotate(-1.18 335.9 204.5)"><path d="M326.4,204.5 Q325.6,181.0 335.9,181.5 Q344.1,181.0 345.4,204.5"/><circle cx="335.9" cy="174.2" r="6.7"/></g><g stroke-opacity="0.475" stroke-width="1.71" transform="rotate(0.39 386.5 200.7)"><path d="M370.8,200.7 Q370.9,167.1 386.5,167.8 Q403.6,167.1 402.2,200.7"/><circle cx="386.5" cy="155.5" r="8.9"/></g><g stroke-opacity="0.475" stroke-width="1.64" transform="rotate(-0.22 417.8 208.5)"><path d="M409.8,208.5 Q411.4,183.1 417.8,183.6 Q428.8,183.1 425.7,208.5"/><circle cx="417.8" cy="176.0" r="4.9"/></g><g stroke-opacity="0.475" stroke-width="1.62" transform="rotate(2.41 469.3 213.4)"><path d="M460.6,213.4 Q457.2,196.5 469.3,196.8 Q481.0,196.5 478.0,213.4"/><circle cx="469.3" cy="190.7" r="5.7"/></g><g stroke-opacity="0.475" stroke-width="1.68" transform="rotate(0.18 507.3 200.3)"><path d="M498.3,200.3 Q494.7,182.6 507.3,183.0 Q514.3,182.6 516.3,200.3"/><circle cx="507.3" cy="174.4" r="7.1"/></g><g stroke-opacity="0.475" stroke-width="1.69" transform="rotate(1.61 549.6 203.5)"><path d="M538.7,203.5 Q538.7,172.5 549.6,173.1 Q556.4,172.5 560.5,203.5"/><circle cx="549.6" cy="164.9" r="7.7"/></g><g stroke-opacity="0.475" stroke-width="1.64" transform="rotate(1.00 584.4 216.1)"><path d="M573.5,216.1 Q576.4,191.3 584.4,191.8 Q594.3,191.3 595.4,216.1"/><circle cx="584.4" cy="182.8" r="7.1"/></g><g stroke-opacity="0.475" stroke-width="1.63" transform="rotate(3.31 610.9 202.6)"><path d="M599.3,202.6 Q602.7,187.5 610.9,187.8 Q619.9,187.5 622.5,202.6"/><circle cx="610.9" cy="179.7" r="6.0"/></g><g stroke-opacity="0.475" stroke-width="1.69" transform="rotate(-0.22 670.0 203.7)"><path d="M660.8,203.7 Q660.7,173.2 670.0,173.8 Q683.3,173.2 679.2,203.7"/><circle cx="670.0" cy="165.1" r="7.9"/></g><g stroke-opacity="0.475" stroke-width="1.68" transform="rotate(3.94 695.5 204.2)"><path d="M687.1,204.2 Q683.3,172.2 695.5,172.9 Q702.3,172.2 703.8,204.2"/><circle cx="695.5" cy="166.8" r="5.7"/></g><g stroke-opacity="0.475" stroke-width="1.68" transform="rotate(-3.12 740.9 217.7)"><path d="M728.8,217.7 Q728.3,198.8 740.9,199.2 Q751.9,198.8 753.1,217.7"/><circle cx="740.9" cy="191.7" r="6.2"/></g><g stroke-opacity="0.475" stroke-width="1.71" transform="rotate(0.17 775.4 217.4)"><path d="M762.5,217.4 Q763.0,197.8 775.4,198.2 Q788.0,197.8 788.2,217.4"/><circle cx="775.4" cy="187.8" r="7.4"/></g><g stroke-opacity="0.475" stroke-width="1.67" transform="rotate(-1.14 812.7 205.6)"><path d="M801.6,205.6 Q799.8,184.0 812.7,184.4 Q825.3,184.0 823.9,205.6"/><circle cx="812.7" cy="173.1" r="8.1"/></g><g stroke-opacity="0.475" stroke-width="1.70" transform="rotate(-1.76 853.9 212.8)"><path d="M838.5,212.8 Q836.3,180.5 853.9,181.2 Q866.6,180.5 869.3,212.8"/><circle cx="853.9" cy="169.0" r="8.9"/></g><g stroke-opacity="0.475" stroke-width="1.67" transform="rotate(-0.49 892.2 205.7)"><path d="M880.9,205.7 Q880.9,187.8 892.2,188.2 Q901.2,187.8 903.5,205.7"/><circle cx="892.2" cy="179.7" r="6.1"/></g><g stroke-opacity="0.475" stroke-width="1.69" transform="rotate(2.46 948.3 202.4)"><path d="M939.4,202.4 Q941.7,183.5 948.3,183.9 Q954.8,183.5 957.1,202.4"/><circle cx="948.3" cy="174.5" r="7.9"/></g><g stroke-opacity="0.475" stroke-width="1.65" transform="rotate(2.50 972.0 205.2)"><path d="M960.8,205.2 Q960.5,177.4 972.0,178.0 Q983.0,177.4 983.2,205.2"/><circle cx="972.0" cy="170.1" r="5.2"/></g><g stroke-opacity="0.475" stroke-width="1.66" transform="rotate(1.28 1026.5 205.1)"><path d="M1014.8,205.1 Q1014.2,186.6 1026.5,187.0 Q1036.9,186.6 1038.1,205.1"/><circle cx="1026.5" cy="178.2" r="6.1"/></g><g stroke-opacity="0.475" stroke-width="1.66" transform="rotate(-1.59 1046.0 217.5)"><path d="M1035.0,217.5 Q1036.4,191.8 1046.0,192.3 Q1058.4,191.8 1057.1,217.5"/><circle cx="1046.0" cy="185.9" r="5.9"/></g><g stroke-opacity="0.475" stroke-width="1.64" transform="rotate(-2.32 1101.7 205.3)"><path d="M1090.6,205.3 Q1089.7,178.7 1101.7,179.2 Q1112.5,178.7 1112.8,205.3"/><circle cx="1101.7" cy="171.0" r="6.1"/></g><g stroke-opacity="0.475" stroke-width="1.68" transform="rotate(-2.93 1141.5 220.2)"><path d="M1126.4,220.2 Q1123.9,202.9 1141.5,203.3 Q1157.3,202.9 1156.7,220.2"/><circle cx="1141.5" cy="197.0" r="5.9"/></g><g stroke-opacity="0.475" stroke-width="1.65" transform="rotate(0.79 1185.8 210.7)"><path d="M1174.2,210.7 Q1174.6,183.6 1185.8,184.1 Q1194.6,183.6 1197.4,210.7"/><circle cx="1185.8" cy="176.9" r="5.1"/></g><g stroke-opacity="0.475" stroke-width="1.64" transform="rotate(-1.35 1226.0 201.3)"><path d="M1215.6,201.3 Q1216.5,179.4 1226.0,179.8 Q1234.5,179.4 1236.4,201.3"/><circle cx="1226.0" cy="171.6" r="7.0"/></g><g stroke-opacity="0.475" stroke-width="1.70" transform="rotate(1.80 1243.5 217.1)"><path d="M1231.2,217.1 Q1230.1,187.3 1243.5,187.9 Q1256.3,187.3 1255.9,217.1"/><circle cx="1243.5" cy="177.7" r="8.6"/></g><g stroke-opacity="0.475" stroke-width="1.67" transform="rotate(0.69 1286.3 209.9)"><path d="M1278.0,209.9 Q1274.6,187.0 1286.3,187.5 Q1292.3,187.0 1294.5,209.9"/><circle cx="1286.3" cy="178.3" r="6.3"/></g><g stroke-opacity="0.475" stroke-width="1.62" transform="rotate(0.33 1336.9 210.5)"><path d="M1327.5,210.5 Q1329.2,189.5 1336.9,189.9 Q1345.7,189.5 1346.3,210.5"/><circle cx="1336.9" cy="185.2" r="4.8"/></g><g stroke-opacity="0.475" stroke-width="1.71" transform="rotate(2.18 1384.4 203.3)"><path d="M1374.2,203.3 Q1379.0,176.8 1384.4,177.3 Q1398.6,176.8 1394.6,203.3"/><circle cx="1384.4" cy="169.1" r="7.4"/></g><g stroke-opacity="0.475" stroke-width="1.70" transform="rotate(2.96 1400.9 205.2)"><path d="M1391.7,205.2 Q1391.5,178.4 1400.9,179.0 Q1406.3,178.4 1410.2,205.2"/><circle cx="1400.9" cy="170.0" r="8.3"/></g><g stroke-opacity="0.475" stroke-width="1.70" transform="rotate(3.64 1456.4 214.4)"><path d="M1447.1,214.4 Q1446.0,187.0 1456.4,187.5 Q1461.3,187.0 1465.7,214.4"/><circle cx="1456.4" cy="179.2" r="6.6"/></g><g stroke-opacity="0.475" stroke-width="1.68" transform="rotate(-1.98 1480.7 205.4)"><path d="M1470.9,205.4 Q1470.7,187.9 1480.7,188.2 Q1494.0,187.9 1490.6,205.4"/><circle cx="1480.7" cy="181.1" r="6.4"/></g><g stroke-opacity="0.475" stroke-width="1.71" transform="rotate(-1.52 1524.0 208.0)"><path d="M1513.9,208.0 Q1515.5,184.0 1524.0,184.5 Q1532.3,184.0 1534.0,208.0"/><circle cx="1524.0" cy="175.8" r="8.0"/></g><g stroke-opacity="0.475" stroke-width="1.68" transform="rotate(0.21 1564.0 203.4)"><path d="M1554.8,203.4 Q1553.5,180.2 1564.0,180.7 Q1575.2,180.2 1573.2,203.4"/><circle cx="1564.0" cy="173.6" r="5.1"/></g><g stroke-opacity="0.475" stroke-width="1.71" transform="rotate(-1.30 1622.9 205.4)"><path d="M1607.7,205.4 Q1608.9,178.7 1622.9,179.2 Q1639.8,178.7 1638.0,205.4"/><circle cx="1622.9" cy="171.5" r="7.3"/></g><g stroke-opacity="0.475" stroke-width="1.69" transform="rotate(-0.08 1653.2 210.2)"><path d="M1643.4,210.2 Q1646.8,179.6 1653.2,180.2 Q1663.4,179.6 1662.9,210.2"/><circle cx="1653.2" cy="173.5" r="6.1"/></g><g stroke-opacity="0.475" stroke-width="1.68" transform="rotate(0.30 1695.7 208.6)"><path d="M1684.8,208.6 Q1689.2,185.0 1695.7,185.5 Q1709.6,185.0 1706.6,208.6"/><circle cx="1695.7" cy="175.9" r="7.5"/></g><g stroke-opacity="0.475" stroke-width="1.69" transform="rotate(-0.14 1738.2 213.0)"><path d="M1723.2,213.0 Q1722.1,194.1 1738.2,194.5 Q1751.5,194.1 1753.1,213.0"/><circle cx="1738.2" cy="186.7" r="7.2"/></g><g stroke-opacity="0.563" stroke-width="1.74" transform="rotate(-3.74 -160.9 285.5)"><path d="M-177.8,285.5 Q-181.6,257.8 -160.9,258.3 Q-146.5,257.8 -143.9,285.5"/><circle cx="-160.9" cy="247.1" r="8.0"/></g><g stroke-opacity="0.563" stroke-width="1.70" transform="rotate(2.40 -101.2 280.3)"><path d="M-114.3,280.3 Q-113.0,259.7 -101.2,260.1 Q-86.4,259.7 -88.1,280.3"/><circle cx="-101.2" cy="254.2" r="6.0"/></g><g stroke-opacity="0.563" stroke-width="1.75" transform="rotate(1.35 -48.4 278.6)"><path d="M-62.4,278.6 Q-58.3,239.0 -48.4,239.8 Q-29.6,239.0 -34.4,278.6"/><circle cx="-48.4" cy="232.8" r="7.2"/></g><g stroke-opacity="0.563" stroke-width="1.70" transform="rotate(0.55 -15.6 279.5)"><path d="M-30.2,279.5 Q-27.3,250.9 -15.6,251.4 Q-1.9,250.9 -0.9,279.5"/><circle cx="-15.6" cy="240.9" r="7.7"/></g><g stroke-opacity="0.563" stroke-width="1.75" transform="rotate(-0.68 32.4 271.8)"><path d="M13.6,271.8 Q16.5,231.7 32.4,232.5 Q50.3,231.7 51.2,271.8"/><circle cx="32.4" cy="221.4" r="8.8"/></g><g stroke-opacity="0.563" stroke-width="1.72" transform="rotate(1.64 72.2 282.4)"><path d="M56.0,282.4 Q58.1,255.1 72.2,255.7 Q85.2,255.1 88.4,282.4"/><circle cx="72.2" cy="249.5" r="6.5"/></g><g stroke-opacity="0.563" stroke-width="1.72" transform="rotate(0.34 119.5 271.2)"><path d="M102.8,271.2 Q99.6,234.0 119.5,234.7 Q137.1,234.0 136.2,271.2"/><circle cx="119.5" cy="225.3" r="9.2"/></g><g stroke-opacity="0.563" stroke-width="1.74" transform="rotate(1.31 179.5 281.9)"><path d="M163.4,281.9 Q161.8,257.1 179.5,257.6 Q195.1,257.1 195.7,281.9"/><circle cx="179.5" cy="244.3" r="9.8"/></g><g stroke-opacity="0.563" stroke-width="1.67" transform="rotate(-1.63 213.1 278.3)"><path d="M203.5,278.3 Q204.5,260.2 213.1,260.5 Q220.9,260.2 222.7,278.3"/><circle cx="213.1" cy="252.5" r="7.2"/></g><g stroke-opacity="0.563" stroke-width="1.72" transform="rotate(2.00 280.4 278.0)"><path d="M268.2,278.0 Q265.2,249.4 280.4,250.0 Q293.3,249.4 292.6,278.0"/><circle cx="280.4" cy="239.8" r="7.3"/></g><g stroke-opacity="0.563" stroke-width="1.75" transform="rotate(1.42 317.0 282.0)"><path d="M299.5,282.0 Q302.3,260.3 317.0,260.7 Q332.2,260.3 334.5,282.0"/><circle cx="317.0" cy="247.8" r="10.0"/></g><g stroke-opacity="0.563" stroke-width="1.77" transform="rotate(-3.35 352.7 268.6)"><path d="M335.5,268.6 Q331.1,245.2 352.7,245.7 Q365.1,245.2 369.9,268.6"/><circle cx="352.7" cy="235.8" r="7.4"/></g><g stroke-opacity="0.563" stroke-width="1.73" transform="rotate(3.63 400.9 284.3)"><path d="M389.7,284.3 Q385.1,250.8 400.9,251.4 Q412.9,250.8 412.0,284.3"/><circle cx="400.9" cy="238.4" r="9.0"/></g><g stroke-opacity="0.563" stroke-width="1.76" transform="rotate(0.34 447.1 276.1)"><path d="M433.1,276.1 Q431.0,247.3 447.1,247.9 Q457.3,247.3 461.1,276.1"/><circle cx="447.1" cy="241.0" r="6.8"/></g><g stroke-opacity="0.563" stroke-width="1.73" transform="rotate(0.78 498.0 268.4)"><path d="M480.7,268.4 Q476.9,243.8 498.0,244.3 Q514.0,243.8 515.3,268.4"/><circle cx="498.0" cy="233.9" r="8.7"/></g><g stroke-opacity="0.563" stroke-width="1.66" transform="rotate(3.09 538.4 272.5)"><path d="M526.9,272.5 Q523.4,252.4 538.4,252.8 Q549.0,252.4 549.8,272.5"/><circle cx="538.4" cy="246.7" r="5.8"/></g><g stroke-opacity="0.563" stroke-width="1.72" transform="rotate(-2.42 609.5 290.5)"><path d="M598.2,290.5 Q595.1,260.2 609.5,260.8 Q616.1,260.2 620.7,290.5"/><circle cx="609.5" cy="252.9" r="6.8"/></g><g stroke-opacity="0.563" stroke-width="1.70" transform="rotate(0.84 640.3 290.3)"><path d="M631.6,290.3 Q631.0,262.7 640.3,263.3 Q652.6,262.7 649.1,290.3"/><circle cx="640.3" cy="255.8" r="6.2"/></g><g stroke-opacity="0.563" stroke-width="1.72" transform="rotate(3.08 683.2 271.7)"><path d="M668.8,271.7 Q669.4,243.8 683.2,244.3 Q702.7,243.8 697.5,271.7"/><circle cx="683.2" cy="236.8" r="7.6"/></g><g stroke-opacity="0.563" stroke-width="1.75" transform="rotate(2.88 739.5 277.5)"><path d="M727.8,277.5 Q731.9,253.0 739.5,253.5 Q755.6,253.0 751.2,277.5"/><circle cx="739.5" cy="242.2" r="10.0"/></g><g stroke-opacity="0.563" stroke-width="1.77" transform="rotate(-2.23 796.3 272.1)"><path d="M782.1,272.1 Q776.3,244.6 796.3,245.2 Q814.6,244.6 810.4,272.1"/><circle cx="796.3" cy="234.4" r="10.4"/></g><g stroke-opacity="0.563" stroke-width="1.75" transform="rotate(3.70 825.7 287.1)"><path d="M811.0,287.1 Q805.5,253.9 825.7,254.6 Q835.3,253.9 840.3,287.1"/><circle cx="825.7" cy="243.6" r="10.1"/></g><g stroke-opacity="0.563" stroke-width="1.68" transform="rotate(-3.58 881.2 273.1)"><path d="M870.6,273.1 Q868.5,246.9 881.2,247.4 Q896.0,246.9 891.9,273.1"/><circle cx="881.2" cy="239.2" r="5.4"/></g><g stroke-opacity="0.563" stroke-width="1.74" transform="rotate(3.87 920.3 284.0)"><path d="M907.7,284.0 Q905.9,243.5 920.3,244.3 Q929.9,243.5 932.9,284.0"/><circle cx="920.3" cy="232.8" r="10.1"/></g><g stroke-opacity="0.563" stroke-width="1.69" transform="rotate(-3.71 979.0 288.8)"><path d="M968.2,288.8 Q966.8,261.7 979.0,262.3 Q991.0,261.7 989.7,288.8"/><circle cx="979.0" cy="253.1" r="7.4"/></g><g stroke-opacity="0.563" stroke-width="1.67" transform="rotate(-2.75 1005.4 284.2)"><path d="M995.6,284.2 Q996.1,264.4 1005.4,264.8 Q1014.6,264.4 1015.1,284.2"/><circle cx="1005.4" cy="258.1" r="5.8"/></g><g stroke-opacity="0.563" stroke-width="1.72" transform="rotate(-0.44 1078.0 292.0)"><path d="M1066.6,292.0 Q1065.3,266.7 1078.0,267.2 Q1084.5,266.7 1089.4,292.0"/><circle cx="1078.0" cy="256.4" r="8.3"/></g><g stroke-opacity="0.563" stroke-width="1.74" transform="rotate(-0.67 1099.6 284.5)"><path d="M1084.2,284.5 Q1084.7,252.3 1099.6,253.0 Q1119.7,252.3 1115.0,284.5"/><circle cx="1099.6" cy="244.2" r="8.2"/></g><g stroke-opacity="0.563" stroke-width="1.67" transform="rotate(-3.44 1167.6 280.4)"><path d="M1158.6,280.4 Q1154.5,258.4 1167.6,258.9 Q1174.0,258.4 1176.6,280.4"/><circle cx="1167.6" cy="249.8" r="7.3"/></g><g stroke-opacity="0.563" stroke-width="1.71" transform="rotate(-1.49 1214.5 271.9)"><path d="M1198.7,271.9 Q1196.6,238.5 1214.5,239.2 Q1228.5,238.5 1230.2,271.9"/><circle cx="1214.5" cy="227.2" r="9.1"/></g><g stroke-opacity="0.563" stroke-width="1.67" transform="rotate(-3.89 1244.4 289.3)"><path d="M1236.1,289.3 Q1232.3,270.1 1244.4,270.5 Q1255.2,270.1 1252.8,289.3"/><circle cx="1244.4" cy="262.6" r="7.5"/></g><g stroke-opacity="0.563" stroke-width="1.77" transform="rotate(-3.07 1309.4 285.4)"><path d="M1298.3,285.4 Q1292.7,248.2 1309.4,249.0 Q1325.8,248.2 1320.4,285.4"/><circle cx="1309.4" cy="238.0" r="10.3"/></g><g stroke-opacity="0.563" stroke-width="1.74" transform="rotate(-3.47 1353.6 268.8)"><path d="M1339.2,268.8 Q1340.6,237.0 1353.6,237.6 Q1369.1,237.0 1368.0,268.8"/><circle cx="1353.6" cy="225.1" r="9.1"/></g><g stroke-opacity="0.563" stroke-width="1.77" transform="rotate(2.70 1396.7 274.3)"><path d="M1382.3,274.3 Q1378.0,251.3 1396.7,251.7 Q1408.5,251.3 1411.1,274.3"/><circle cx="1396.7" cy="240.7" r="9.8"/></g><g stroke-opacity="0.563" stroke-width="1.75" transform="rotate(2.20 1438.4 282.0)"><path d="M1424.3,282.0 Q1428.9,252.3 1438.4,252.9 Q1452.9,252.3 1452.5,282.0"/><circle cx="1438.4" cy="241.3" r="8.2"/></g><g stroke-opacity="0.563" stroke-width="1.74" transform="rotate(-0.52 1497.3 271.9)"><path d="M1482.1,271.9 Q1481.8,242.9 1497.3,243.5 Q1515.9,242.9 1512.5,271.9"/><circle cx="1497.3" cy="232.7" r="10.0"/></g><g stroke-opacity="0.563" stroke-width="1.73" transform="rotate(3.03 1527.2 287.9)"><path d="M1511.9,287.9 Q1510.4,259.5 1527.2,260.1 Q1547.7,259.5 1542.5,287.9"/><circle cx="1527.2" cy="250.2" r="8.5"/></g><g stroke-opacity="0.563" stroke-width="1.77" transform="rotate(-3.17 1573.2 277.6)"><path d="M1561.8,277.6 Q1560.6,240.3 1573.2,241.0 Q1584.4,240.3 1584.5,277.6"/><circle cx="1573.2" cy="229.1" r="9.5"/></g><g stroke-opacity="0.563" stroke-width="1.70" transform="rotate(0.20 1618.6 291.8)"><path d="M1602.5,291.8 Q1603.5,267.4 1618.6,267.9 Q1630.5,267.4 1634.7,291.8"/><circle cx="1618.6" cy="257.8" r="7.2"/></g><g stroke-opacity="0.563" stroke-width="1.71" transform="rotate(-0.79 1671.5 274.7)"><path d="M1656.8,274.7 Q1657.5,241.6 1671.5,242.3 Q1683.1,241.6 1686.2,274.7"/><circle cx="1671.5" cy="229.9" r="8.7"/></g><g stroke-opacity="0.563" stroke-width="1.76" transform="rotate(-1.03 1724.4 283.6)"><path d="M1710.7,283.6 Q1714.9,244.3 1724.4,245.1 Q1734.1,244.3 1738.1,283.6"/><circle cx="1724.4" cy="236.0" r="7.2"/></g><g stroke-opacity="0.650" stroke-width="1.82" transform="rotate(-0.03 -142.2 362.3)"><path d="M-160.1,362.3 Q-164.4,321.7 -142.2,322.5 Q-120.3,321.7 -124.3,362.3"/><circle cx="-142.2" cy="309.6" r="11.7"/></g><g stroke-opacity="0.650" stroke-width="1.76" transform="rotate(-2.91 -82.1 336.8)"><path d="M-99.9,336.8 Q-103.2,306.3 -82.1,307.0 Q-66.4,306.3 -64.3,336.8"/><circle cx="-82.1" cy="296.5" r="9.1"/></g><g stroke-opacity="0.650" stroke-width="1.77" transform="rotate(2.49 -53.4 339.9)"><path d="M-71.4,339.9 Q-73.2,301.6 -53.4,302.4 Q-38.3,301.6 -35.4,339.9"/><circle cx="-53.4" cy="289.3" r="10.5"/></g><g stroke-opacity="0.650" stroke-width="1.74" transform="rotate(-1.13 28.4 361.5)"><path d="M18.7,361.5 Q21.6,329.9 28.4,330.6 Q38.2,329.9 38.1,361.5"/><circle cx="28.4" cy="319.5" r="9.6"/></g><g stroke-opacity="0.650" stroke-width="1.73" transform="rotate(3.16 59.4 354.4)"><path d="M46.4,354.4 Q41.2,332.0 59.4,332.5 Q70.1,332.0 72.5,354.4"/><circle cx="59.4" cy="320.5" r="8.6"/></g><g stroke-opacity="0.650" stroke-width="1.73" transform="rotate(2.99 119.7 354.8)"><path d="M107.3,354.8 Q111.4,327.6 119.7,328.1 Q130.0,327.6 132.0,354.8"/><circle cx="119.7" cy="318.1" r="8.2"/></g><g stroke-opacity="0.650" stroke-width="1.80" transform="rotate(3.04 169.4 352.8)"><path d="M157.7,352.8 Q162.0,306.7 169.4,307.6 Q176.5,306.7 181.1,352.8"/><circle cx="169.4" cy="292.8" r="10.4"/></g><g stroke-opacity="0.650" stroke-width="1.71" transform="rotate(-0.47 230.1 345.8)"><path d="M218.7,345.8 Q223.5,314.8 230.1,315.5 Q241.5,314.8 241.4,345.8"/><circle cx="230.1" cy="306.7" r="6.0"/></g><g stroke-opacity="0.650" stroke-width="1.76" transform="rotate(-3.82 269.2 356.2)"><path d="M253.4,356.2 Q251.3,323.0 269.2,323.7 Q289.8,323.0 285.0,356.2"/><circle cx="269.2" cy="312.8" r="8.9"/></g><g stroke-opacity="0.650" stroke-width="1.74" transform="rotate(1.09 321.1 338.9)"><path d="M303.3,338.9 Q302.9,307.6 321.1,308.2 Q339.0,307.6 338.9,338.9"/><circle cx="321.1" cy="295.6" r="9.4"/></g><g stroke-opacity="0.650" stroke-width="1.74" transform="rotate(-0.45 381.0 357.9)"><path d="M363.8,357.9 Q367.7,324.9 381.0,325.6 Q398.3,324.9 398.2,357.9"/><circle cx="381.0" cy="314.9" r="9.2"/></g><g stroke-opacity="0.650" stroke-width="1.73" transform="rotate(1.52 450.3 356.7)"><path d="M440.7,356.7 Q439.3,328.2 450.3,328.8 Q454.8,328.2 459.9,356.7"/><circle cx="450.3" cy="322.1" r="6.7"/></g><g stroke-opacity="0.650" stroke-width="1.80" transform="rotate(3.06 492.9 354.6)"><path d="M478.3,354.6 Q482.4,321.1 492.9,321.8 Q513.7,321.1 507.4,354.6"/><circle cx="492.9" cy="311.3" r="8.3"/></g><g stroke-opacity="0.650" stroke-width="1.71" transform="rotate(-1.43 564.9 355.0)"><path d="M555.1,355.0 Q555.3,319.1 564.9,319.8 Q578.1,319.1 574.6,355.0"/><circle cx="564.9" cy="309.9" r="7.8"/></g><g stroke-opacity="0.650" stroke-width="1.81" transform="rotate(-2.78 612.0 363.4)"><path d="M596.2,363.4 Q595.4,332.4 612.0,333.0 Q629.2,332.4 627.7,363.4"/><circle cx="612.0" cy="321.4" r="9.4"/></g><g stroke-opacity="0.650" stroke-width="1.75" transform="rotate(2.37 660.3 363.1)"><path d="M650.1,363.1 Q645.6,339.1 660.3,339.6 Q674.6,339.1 670.6,363.1"/><circle cx="660.3" cy="328.7" r="8.3"/></g><g stroke-opacity="0.650" stroke-width="1.75" transform="rotate(0.68 718.5 360.3)"><path d="M703.5,360.3 Q699.3,339.1 718.5,339.5 Q731.5,339.1 733.5,360.3"/><circle cx="718.5" cy="326.5" r="9.4"/></g><g stroke-opacity="0.650" stroke-width="1.78" transform="rotate(-0.50 758.4 340.6)"><path d="M737.7,340.6 Q735.4,309.5 758.4,310.1 Q776.0,309.5 779.1,340.6"/><circle cx="758.4" cy="297.4" r="11.3"/></g><g stroke-opacity="0.650" stroke-width="1.70" transform="rotate(-0.53 810.8 351.3)"><path d="M799.7,351.3 Q800.4,319.1 810.8,319.7 Q818.3,319.1 821.8,351.3"/><circle cx="810.8" cy="313.0" r="6.6"/></g><g stroke-opacity="0.650" stroke-width="1.83" transform="rotate(3.65 882.6 362.2)"><path d="M869.2,362.2 Q867.7,314.1 882.6,315.1 Q898.2,314.1 895.9,362.2"/><circle cx="882.6" cy="301.4" r="12.0"/></g><g stroke-opacity="0.650" stroke-width="1.71" transform="rotate(1.99 917.2 359.8)"><path d="M905.7,359.8 Q906.4,329.7 917.2,330.3 Q930.2,329.7 928.7,359.8"/><circle cx="917.2" cy="320.0" r="7.7"/></g><g stroke-opacity="0.650" stroke-width="1.78" transform="rotate(-1.71 999.1 349.8)"><path d="M984.3,349.8 Q979.1,311.6 999.1,312.4 Q1008.0,311.6 1013.9,349.8"/><circle cx="999.1" cy="302.3" r="9.0"/></g><g stroke-opacity="0.650" stroke-width="1.78" transform="rotate(2.09 1028.5 362.0)"><path d="M1016.0,362.0 Q1021.4,318.0 1028.5,318.9 Q1043.2,318.0 1041.0,362.0"/><circle cx="1028.5" cy="303.4" r="11.1"/></g><g stroke-opacity="0.650" stroke-width="1.77" transform="rotate(2.21 1083.8 362.9)"><path d="M1072.6,362.9 Q1068.2,326.6 1083.8,327.3 Q1090.9,326.6 1094.9,362.9"/><circle cx="1083.8" cy="314.2" r="8.8"/></g><g stroke-opacity="0.650" stroke-width="1.83" transform="rotate(-0.04 1160.0 341.4)"><path d="M1140.1,341.4 Q1146.0,308.7 1160.0,309.3 Q1185.0,308.7 1180.0,341.4"/><circle cx="1160.0" cy="301.2" r="8.0"/></g><g stroke-opacity="0.650" stroke-width="1.79" transform="rotate(-2.69 1209.8 355.6)"><path d="M1193.5,355.6 Q1189.0,322.9 1209.8,323.6 Q1230.7,322.9 1226.2,355.6"/><circle cx="1209.8" cy="313.0" r="8.2"/></g><g stroke-opacity="0.650" stroke-width="1.79" transform="rotate(-0.82 1240.5 355.6)"><path d="M1221.1,355.6 Q1219.0,316.1 1240.5,316.9 Q1259.1,316.1 1260.0,355.6"/><circle cx="1240.5" cy="302.7" r="10.0"/></g><g stroke-opacity="0.650" stroke-width="1.81" transform="rotate(0.97 1311.1 356.6)"><path d="M1296.1,356.6 Q1296.3,317.6 1311.1,318.4 Q1321.3,317.6 1326.1,356.6"/><circle cx="1311.1" cy="305.6" r="11.9"/></g><g stroke-opacity="0.650" stroke-width="1.74" transform="rotate(-0.61 1379.9 340.5)"><path d="M1366.7,340.5 Q1364.5,310.7 1379.9,311.3 Q1396.4,310.7 1393.1,340.5"/><circle cx="1379.9" cy="304.8" r="7.0"/></g><g stroke-opacity="0.650" stroke-width="1.72" transform="rotate(3.90 1405.7 360.9)"><path d="M1388.8,360.9 Q1390.1,326.7 1405.7,327.4 Q1421.9,326.7 1422.7,360.9"/><circle cx="1405.7" cy="316.6" r="8.7"/></g><g stroke-opacity="0.650" stroke-width="1.77" transform="rotate(0.33 1478.7 347.9)"><path d="M1461.1,347.9 Q1465.1,321.0 1478.7,321.6 Q1501.8,321.0 1496.3,347.9"/><circle cx="1478.7" cy="307.7" r="10.2"/></g><g stroke-opacity="0.650" stroke-width="1.77" transform="rotate(1.77 1539.6 352.3)"><path d="M1527.7,352.3 Q1532.0,313.5 1539.6,314.3 Q1556.2,313.5 1551.5,352.3"/><circle cx="1539.6" cy="302.5" r="10.8"/></g><g stroke-opacity="0.650" stroke-width="1.71" transform="rotate(-1.69 1591.4 349.8)"><path d="M1576.4,349.8 Q1573.4,318.8 1591.4,319.4 Q1601.7,318.8 1606.4,349.8"/><circle cx="1591.4" cy="310.4" r="7.2"/></g><g stroke-opacity="0.650" stroke-width="1.74" transform="rotate(1.63 1644.8 359.3)"><path d="M1627.5,359.3 Q1631.0,335.7 1644.8,336.1 Q1658.5,335.7 1662.0,359.3"/><circle cx="1644.8" cy="330.0" r="6.8"/></g><g stroke-opacity="0.650" stroke-width="1.73" transform="rotate(-1.74 1682.2 347.1)"><path d="M1669.3,347.1 Q1666.7,317.2 1682.2,317.8 Q1690.1,317.2 1695.1,347.1"/><circle cx="1682.2" cy="308.1" r="8.8"/></g><g stroke-opacity="0.650" stroke-width="1.83" transform="rotate(-3.93 1741.2 340.6)"><path d="M1723.9,340.6 Q1719.5,305.1 1741.2,305.8 Q1756.9,305.1 1758.5,340.6"/><circle cx="1741.2" cy="292.0" r="11.0"/></g><g stroke-opacity="0.738" stroke-width="1.77" transform="rotate(-2.30 -145.4 430.5)"><path d="M-156.1,430.5 Q-151.7,393.1 -145.4,393.8 Q-132.7,393.1 -134.7,430.5"/><circle cx="-145.4" cy="380.7" r="8.8"/></g><g stroke-opacity="0.738" stroke-width="1.77" transform="rotate(-3.54 -85.8 424.6)"><path d="M-104.5,424.6 Q-104.1,382.7 -85.8,383.5 Q-71.4,382.7 -67.2,424.6"/><circle cx="-85.8" cy="369.7" r="9.7"/></g><g stroke-opacity="0.738" stroke-width="1.87" transform="rotate(0.49 -15.6 433.4)"><path d="M-40.6,433.4 Q-34.0,381.4 -15.6,382.5 Q7.0,381.4 9.3,433.4"/><circle cx="-15.6" cy="369.8" r="8.8"/></g><g stroke-opacity="0.738" stroke-width="1.78" transform="rotate(3.63 29.9 433.9)"><path d="M15.7,433.9 Q16.1,403.1 29.9,403.8 Q45.7,403.1 44.0,433.9"/><circle cx="29.9" cy="393.8" r="8.4"/></g><g stroke-opacity="0.738" stroke-width="1.74" transform="rotate(-2.96 93.1 435.6)"><path d="M80.0,435.6 Q83.5,410.5 93.1,411.0 Q109.9,410.5 106.3,435.6"/><circle cx="93.1" cy="401.0" r="7.1"/></g><g stroke-opacity="0.738" stroke-width="1.86" transform="rotate(1.27 163.5 425.5)"><path d="M147.2,425.5 Q153.3,373.8 163.5,374.9 Q176.1,373.8 179.8,425.5"/><circle cx="163.5" cy="357.0" r="12.3"/></g><g stroke-opacity="0.738" stroke-width="1.87" transform="rotate(-2.89 230.5 432.7)"><path d="M213.8,432.7 Q209.3,391.3 230.5,392.1 Q248.1,391.3 247.2,432.7"/><circle cx="230.5" cy="377.1" r="11.6"/></g><g stroke-opacity="0.738" stroke-width="1.87" transform="rotate(-3.38 292.9 434.1)"><path d="M270.2,434.1 Q264.1,401.7 292.9,402.4 Q318.1,401.7 315.5,434.1"/><circle cx="292.9" cy="387.5" r="13.0"/></g><g stroke-opacity="0.738" stroke-width="1.81" transform="rotate(-1.23 340.5 432.8)"><path d="M326.1,432.8 Q327.8,394.8 340.5,395.6 Q352.6,394.8 354.9,432.8"/><circle cx="340.5" cy="379.3" r="12.3"/></g><g stroke-opacity="0.738" stroke-width="1.86" transform="rotate(2.26 415.3 414.0)"><path d="M396.4,414.0 Q401.6,374.1 415.3,374.9 Q439.4,374.1 434.2,414.0"/><circle cx="415.3" cy="359.1" r="12.7"/></g><g stroke-opacity="0.738" stroke-width="1.85" transform="rotate(-0.22 487.4 412.1)"><path d="M474.0,412.1 Q472.8,364.3 487.4,365.2 Q500.0,364.3 500.9,412.1"/><circle cx="487.4" cy="349.3" r="13.6"/></g><g stroke-opacity="0.738" stroke-width="1.77" transform="rotate(1.28 535.5 421.5)"><path d="M520.8,421.5 Q524.1,382.9 535.5,383.7 Q549.5,382.9 550.3,421.5"/><circle cx="535.5" cy="372.9" r="8.8"/></g><g stroke-opacity="0.738" stroke-width="1.85" transform="rotate(1.20 595.4 412.0)"><path d="M579.7,412.0 Q575.4,379.8 595.4,380.5 Q611.2,379.8 611.2,412.0"/><circle cx="595.4" cy="367.4" r="12.2"/></g><g stroke-opacity="0.738" stroke-width="1.78" transform="rotate(2.65 660.7 426.1)"><path d="M642.6,426.1 Q638.3,385.3 660.7,386.1 Q675.5,385.3 678.8,426.1"/><circle cx="660.7" cy="377.3" r="7.4"/></g><g stroke-opacity="0.738" stroke-width="1.86" transform="rotate(-2.50 701.9 418.0)"><path d="M680.6,418.0 Q674.2,364.8 701.9,365.8 Q722.7,364.8 723.2,418.0"/><circle cx="701.9" cy="355.2" r="9.1"/></g><g stroke-opacity="0.738" stroke-width="1.83" transform="rotate(2.48 764.5 417.6)"><path d="M744.9,417.6 Q742.9,380.5 764.5,381.3 Q784.8,380.5 784.1,417.6"/><circle cx="764.5" cy="367.3" r="12.5"/></g><g stroke-opacity="0.738" stroke-width="1.84" transform="rotate(1.85 849.7 429.4)"><path d="M826.7,429.4 Q833.6,390.0 849.7,390.8 Q879.6,390.0 872.6,429.4"/><circle cx="849.7" cy="376.4" r="10.5"/></g><g stroke-opacity="0.738" stroke-width="1.76" transform="rotate(-3.69 904.0 411.1)"><path d="M893.2,411.1 Q896.2,374.8 904.0,375.5 Q920.2,374.8 914.7,411.1"/><circle cx="904.0" cy="363.9" r="8.0"/></g><g stroke-opacity="0.738" stroke-width="1.84" transform="rotate(1.90 959.3 431.5)"><path d="M945.9,431.5 Q943.8,386.7 959.3,387.6 Q972.3,386.7 972.6,431.5"/><circle cx="959.3" cy="374.2" r="9.6"/></g><g stroke-opacity="0.738" stroke-width="1.81" transform="rotate(-2.26 1038.0 418.5)"><path d="M1022.9,418.5 Q1026.3,390.3 1038.0,390.9 Q1048.8,390.3 1053.1,418.5"/><circle cx="1038.0" cy="380.7" r="10.0"/></g><g stroke-opacity="0.738" stroke-width="1.86" transform="rotate(3.65 1089.1 427.1)"><path d="M1072.9,427.1 Q1072.1,397.8 1089.1,398.4 Q1107.2,397.8 1105.2,427.1"/><circle cx="1089.1" cy="387.7" r="9.8"/></g><g stroke-opacity="0.738" stroke-width="1.82" transform="rotate(-2.07 1128.7 426.4)"><path d="M1108.5,426.4 Q1105.5,385.8 1128.7,386.6 Q1144.8,385.8 1148.9,426.4"/><circle cx="1128.7" cy="376.8" r="8.6"/></g><g stroke-opacity="0.738" stroke-width="1.85" transform="rotate(1.82 1209.3 418.5)"><path d="M1192.7,418.5 Q1186.9,388.3 1209.3,388.9 Q1232.0,388.3 1225.9,418.5"/><circle cx="1209.3" cy="372.3" r="13.1"/></g><g stroke-opacity="0.738" stroke-width="1.77" transform="rotate(2.31 1263.1 406.2)"><path d="M1250.4,406.2 Q1251.8,371.6 1263.1,372.3 Q1279.9,371.6 1275.9,406.2"/><circle cx="1263.1" cy="362.4" r="8.6"/></g><g stroke-opacity="0.738" stroke-width="1.84" transform="rotate(-2.27 1338.2 406.1)"><path d="M1323.9,406.1 Q1319.4,369.4 1338.2,370.2 Q1347.8,369.4 1352.6,406.1"/><circle cx="1338.2" cy="357.4" r="8.6"/></g><g stroke-opacity="0.738" stroke-width="1.76" transform="rotate(-2.30 1394.4 408.8)"><path d="M1380.6,408.8 Q1379.3,383.1 1394.4,383.6 Q1406.4,383.1 1408.2,408.8"/><circle cx="1394.4" cy="373.6" r="7.8"/></g><g stroke-opacity="0.738" stroke-width="1.83" transform="rotate(3.88 1462.8 416.4)"><path d="M1444.8,416.4 Q1446.4,383.4 1462.8,384.0 Q1486.8,383.4 1480.8,416.4"/><circle cx="1462.8" cy="374.5" r="9.8"/></g><g stroke-opacity="0.738" stroke-width="1.89" transform="rotate(3.61 1527.5 417.5)"><path d="M1503.5,417.5 Q1500.9,378.4 1527.5,379.2 Q1545.8,378.4 1551.6,417.5"/><circle cx="1527.5" cy="360.0" r="13.6"/></g><g stroke-opacity="0.738" stroke-width="1.88" transform="rotate(-2.86 1581.7 407.8)"><path d="M1563.2,407.8 Q1567.2,376.9 1581.7,377.5 Q1599.1,376.9 1600.2,407.8"/><circle cx="1581.7" cy="364.6" r="8.9"/></g><g stroke-opacity="0.738" stroke-width="1.79" transform="rotate(2.80 1642.5 405.4)"><path d="M1629.9,405.4 Q1632.6,370.3 1642.5,371.0 Q1658.9,370.3 1655.2,405.4"/><circle cx="1642.5" cy="358.2" r="8.6"/></g><g stroke-opacity="0.738" stroke-width="1.87" transform="rotate(-2.03 1686.1 421.2)"><path d="M1665.6,421.2 Q1665.8,372.3 1686.1,373.3 Q1703.0,372.3 1706.7,421.2"/><circle cx="1686.1" cy="359.7" r="13.3"/></g><g stroke-opacity="0.738" stroke-width="1.78" transform="rotate(-1.53 1746.0 422.6)"><path d="M1729.0,422.6 Q1734.4,385.1 1746.0,385.8 Q1765.3,385.1 1763.1,422.6"/><circle cx="1746.0" cy="373.3" r="10.8"/></g><g stroke-opacity="0.825" stroke-width="1.90" transform="rotate(-3.73 -126.4 479.1)"><path d="M-149.6,479.1 Q-154.2,430.1 -126.4,431.1 Q-103.4,430.1 -103.2,479.1"/><circle cx="-126.4" cy="416.5" r="13.6"/></g><g stroke-opacity="0.825" stroke-width="1.90" transform="rotate(3.35 -73.6 507.3)"><path d="M-90.2,507.3 Q-85.5,447.5 -73.6,448.7 Q-62.1,447.5 -57.1,507.3"/><circle cx="-73.6" cy="429.1" r="15.0"/></g><g stroke-opacity="0.825" stroke-width="1.79" transform="rotate(-0.25 7.8 496.2)"><path d="M-12.1,496.2 Q-9.9,451.9 7.8,452.8 Q31.0,451.9 27.6,496.2"/><circle cx="7.8" cy="445.1" r="7.3"/></g><g stroke-opacity="0.825" stroke-width="1.83" transform="rotate(-2.97 52.8 480.6)"><path d="M33.1,480.6 Q31.6,439.3 52.8,440.2 Q70.5,439.3 72.5,480.6"/><circle cx="52.8" cy="431.2" r="8.9"/></g><g stroke-opacity="0.825" stroke-width="1.90" transform="rotate(1.14 151.9 497.5)"><path d="M123.2,497.5 Q123.0,434.8 151.9,436.1 Q183.4,434.8 180.6,497.5"/><circle cx="151.9" cy="424.2" r="12.0"/></g><g stroke-opacity="0.825" stroke-width="1.83" transform="rotate(0.81 193.6 500.0)"><path d="M170.5,500.0 Q171.8,466.6 193.6,467.2 Q213.2,466.6 216.8,500.0"/><circle cx="193.6" cy="456.3" r="10.0"/></g><g stroke-opacity="0.825" stroke-width="1.88" transform="rotate(0.09 263.5 506.4)"><path d="M247.2,506.4 Q250.7,468.5 263.5,469.3 Q280.0,468.5 279.8,506.4"/><circle cx="263.5" cy="454.9" r="14.3"/></g><g stroke-opacity="0.825" stroke-width="1.87" transform="rotate(-2.76 354.7 488.8)"><path d="M331.7,488.8 Q327.7,443.1 354.7,444.0 Q384.9,443.1 377.8,488.8"/><circle cx="354.7" cy="430.9" r="8.8"/></g><g stroke-opacity="0.825" stroke-width="1.90" transform="rotate(-2.20 396.2 487.1)"><path d="M376.5,487.1 Q383.4,450.2 396.2,450.9 Q418.6,450.2 415.9,487.1"/><circle cx="396.2" cy="431.3" r="13.6"/></g><g stroke-opacity="0.825" stroke-width="1.90" transform="rotate(1.44 465.1 493.6)"><path d="M438.5,493.6 Q438.6,445.1 465.1,446.1 Q496.3,445.1 491.7,493.6"/><circle cx="465.1" cy="427.3" r="14.2"/></g><g stroke-opacity="0.825" stroke-width="1.83" transform="rotate(1.26 566.2 490.7)"><path d="M543.7,490.7 Q541.0,444.1 566.2,445.0 Q592.8,444.1 588.8,490.7"/><circle cx="566.2" cy="428.2" r="11.6"/></g><g stroke-opacity="0.825" stroke-width="1.88" transform="rotate(2.76 638.5 495.6)"><path d="M617.9,495.6 Q614.2,451.1 638.5,452.0 Q665.1,451.1 659.1,495.6"/><circle cx="638.5" cy="439.7" r="9.7"/></g><g stroke-opacity="0.825" stroke-width="1.90" transform="rotate(2.74 685.1 503.1)"><path d="M660.7,503.1 Q665.1,467.3 685.1,468.0 Q712.5,467.3 709.6,503.1"/><circle cx="685.1" cy="451.0" r="11.8"/></g><g stroke-opacity="0.825" stroke-width="1.79" transform="rotate(-1.13 754.9 504.8)"><path d="M737.2,504.8 Q739.0,472.9 754.9,473.6 Q775.3,472.9 772.7,504.8"/><circle cx="754.9" cy="464.2" r="9.1"/></g><g stroke-opacity="0.825" stroke-width="1.90" transform="rotate(-2.95 815.0 506.7)"><path d="M795.2,506.7 Q802.8,442.9 815.0,444.2 Q833.2,442.9 834.9,506.7"/><circle cx="815.0" cy="432.5" r="11.7"/></g><g stroke-opacity="0.825" stroke-width="1.90" transform="rotate(2.15 898.9 504.0)"><path d="M876.9,504.0 Q877.0,466.9 898.9,467.6 Q914.4,466.9 920.9,504.0"/><circle cx="898.9" cy="451.8" r="10.4"/></g><g stroke-opacity="0.825" stroke-width="1.90" transform="rotate(1.98 943.3 487.2)"><path d="M919.2,487.2 Q922.0,449.4 943.3,450.1 Q970.4,449.4 967.5,487.2"/><circle cx="943.3" cy="432.9" r="16.0"/></g><g stroke-opacity="0.825" stroke-width="1.89" transform="rotate(-2.53 1013.0 495.5)"><path d="M987.9,495.5 Q981.1,454.0 1013.0,454.8 Q1042.6,454.0 1038.0,495.5"/><circle cx="1013.0" cy="441.1" r="9.1"/></g><g stroke-opacity="0.825" stroke-width="1.90" transform="rotate(2.23 1092.6 500.1)"><path d="M1065.2,500.1 Q1066.2,449.4 1092.6,450.4 Q1114.7,449.4 1120.0,500.1"/><circle cx="1092.6" cy="439.4" r="9.9"/></g><g stroke-opacity="0.825" stroke-width="1.84" transform="rotate(-1.64 1184.5 495.2)"><path d="M1171.0,495.2 Q1166.6,461.4 1184.5,462.1 Q1199.1,461.4 1198.0,495.2"/><circle cx="1184.5" cy="448.8" r="12.0"/></g><g stroke-opacity="0.825" stroke-width="1.90" transform="rotate(-1.97 1253.8 484.5)"><path d="M1228.3,484.5 Q1230.3,426.1 1253.8,427.3 Q1278.7,426.1 1279.3,484.5"/><circle cx="1253.8" cy="413.8" r="11.5"/></g><g stroke-opacity="0.825" stroke-width="1.90" transform="rotate(-0.54 1285.4 472.8)"><path d="M1271.0,472.8 Q1270.4,416.6 1285.4,417.7 Q1294.2,416.6 1299.9,472.8"/><circle cx="1285.4" cy="401.7" r="11.1"/></g><g stroke-opacity="0.825" stroke-width="1.81" transform="rotate(0.18 1370.6 499.0)"><path d="M1353.9,499.0 Q1352.4,463.3 1370.6,464.0 Q1390.8,463.3 1387.2,499.0"/><circle cx="1370.6" cy="451.3" r="9.9"/></g><g stroke-opacity="0.825" stroke-width="1.90" transform="rotate(3.48 1452.4 491.8)"><path d="M1425.9,491.8 Q1432.4,454.3 1452.4,455.1 Q1478.0,454.3 1478.9,491.8"/><circle cx="1452.4" cy="440.6" r="13.6"/></g><g stroke-opacity="0.825" stroke-width="1.90" transform="rotate(-2.95 1520.1 480.7)"><path d="M1497.5,480.7 Q1494.5,442.1 1520.1,442.9 Q1547.6,442.1 1542.8,480.7"/><circle cx="1520.1" cy="430.2" r="11.8"/></g><g stroke-opacity="0.825" stroke-width="1.89" transform="rotate(3.68 1573.1 501.7)"><path d="M1557.1,501.7 Q1563.4,458.8 1573.1,459.7 Q1585.8,458.8 1589.2,501.7"/><circle cx="1573.1" cy="446.2" r="9.8"/></g><g stroke-opacity="0.825" stroke-width="1.81" transform="rotate(-2.49 1651.4 484.5)"><path d="M1636.4,484.5 Q1630.9,443.0 1651.4,443.9 Q1660.7,443.0 1666.3,484.5"/><circle cx="1651.4" cy="428.7" r="11.5"/></g><g stroke-opacity="0.825" stroke-width="1.80" transform="rotate(3.21 1697.6 481.9)"><path d="M1685.5,481.9 Q1679.5,441.2 1697.6,442.0 Q1703.6,441.2 1709.8,481.9"/><circle cx="1697.6" cy="428.7" r="10.1"/></g><g stroke-opacity="0.912" stroke-width="1.90" transform="rotate(-2.06 -156.2 569.1)"><path d="M-187.0,569.1 Q-190.6,514.5 -156.2,515.5 Q-117.6,514.5 -125.4,569.1"/><circle cx="-156.2" cy="500.8" r="11.9"/></g><g stroke-opacity="0.912" stroke-width="1.89" transform="rotate(-3.71 -76.5 569.5)"><path d="M-93.9,569.5 Q-94.1,513.5 -76.5,514.6 Q-63.5,513.5 -59.0,569.5"/><circle cx="-76.5" cy="494.1" r="14.4"/></g><g stroke-opacity="0.912" stroke-width="1.90" transform="rotate(-0.07 -1.6 567.6)"><path d="M-27.8,567.6 Q-27.1,516.9 -1.6,517.9 Q28.8,516.9 24.5,567.6"/><circle cx="-1.6" cy="502.3" r="12.8"/></g><g stroke-opacity="0.912" stroke-width="1.90" transform="rotate(-0.83 93.7 546.4)"><path d="M73.0,546.4 Q78.5,496.6 93.7,497.6 Q121.2,496.6 114.5,546.4"/><circle cx="93.7" cy="483.0" r="12.9"/></g><g stroke-opacity="0.912" stroke-width="1.90" transform="rotate(-2.42 152.5 543.6)"><path d="M126.0,543.6 Q121.5,502.1 152.5,502.9 Q180.6,502.1 179.0,543.6"/><circle cx="152.5" cy="486.8" r="12.5"/></g><g stroke-opacity="0.912" stroke-width="1.90" transform="rotate(0.09 237.6 555.3)"><path d="M209.2,555.3 Q216.0,501.7 237.6,502.8 Q257.9,501.7 266.0,555.3"/><circle cx="237.6" cy="481.4" r="16.6"/></g><g stroke-opacity="0.912" stroke-width="1.90" transform="rotate(1.73 320.5 567.3)"><path d="M296.4,567.3 Q302.1,515.0 320.5,516.0 Q344.7,515.0 344.6,567.3"/><circle cx="320.5" cy="499.3" r="10.7"/></g><g stroke-opacity="0.912" stroke-width="1.86" transform="rotate(-1.41 378.6 559.6)"><path d="M364.6,559.6 Q359.5,526.0 378.6,526.7 Q394.3,526.0 392.6,559.6"/><circle cx="378.6" cy="508.4" r="13.0"/></g><g stroke-opacity="0.912" stroke-width="1.83" transform="rotate(-0.18 459.6 571.1)"><path d="M444.8,571.1 Q450.7,530.0 459.6,530.8 Q467.7,530.0 474.3,571.1"/><circle cx="459.6" cy="517.9" r="10.0"/></g><g stroke-opacity="0.912" stroke-width="1.90" transform="rotate(-2.76 540.4 565.8)"><path d="M520.5,565.8 Q514.7,505.1 540.4,506.3 Q565.2,505.1 560.4,565.8"/><circle cx="540.4" cy="489.4" r="10.9"/></g><g stroke-opacity="0.912" stroke-width="1.90" transform="rotate(0.40 600.4 559.9)"><path d="M576.7,559.9 Q584.0,526.5 600.4,527.2 Q616.6,526.5 624.1,559.9"/><circle cx="600.4" cy="508.3" r="13.3"/></g><g stroke-opacity="0.912" stroke-width="1.90" transform="rotate(-3.68 701.7 579.1)"><path d="M671.2,579.1 Q679.8,515.5 701.7,516.8 Q731.5,515.5 732.2,579.1"/><circle cx="701.7" cy="499.1" r="15.3"/></g><g stroke-opacity="0.912" stroke-width="1.83" transform="rotate(2.65 768.0 577.0)"><path d="M749.3,577.0 Q754.6,526.2 768.0,527.2 Q789.1,526.2 786.6,577.0"/><circle cx="768.0" cy="514.6" r="12.0"/></g><g stroke-opacity="0.912" stroke-width="1.90" transform="rotate(2.96 842.0 568.9)"><path d="M818.5,568.9 Q821.9,521.1 842.0,522.1 Q874.3,521.1 865.5,568.9"/><circle cx="842.0" cy="505.6" r="11.0"/></g><g stroke-opacity="0.912" stroke-width="1.90" transform="rotate(0.65 933.3 557.4)"><path d="M916.1,557.4 Q913.1,515.5 933.3,516.3 Q957.8,515.5 950.4,557.4"/><circle cx="933.3" cy="501.5" r="13.1"/></g><g stroke-opacity="0.912" stroke-width="1.82" transform="rotate(0.57 979.7 550.5)"><path d="M960.2,550.5 Q960.7,504.0 979.7,505.0 Q995.9,504.0 999.2,550.5"/><circle cx="979.7" cy="487.1" r="12.7"/></g><g stroke-opacity="0.912" stroke-width="1.88" transform="rotate(0.77 1051.8 557.3)"><path d="M1028.0,557.3 Q1030.1,520.8 1051.8,521.5 Q1073.6,520.8 1075.5,557.3"/><circle cx="1051.8" cy="504.2" r="13.1"/></g><g stroke-opacity="0.912" stroke-width="1.90" transform="rotate(0.41 1139.5 553.8)"><path d="M1111.5,553.8 Q1111.0,495.2 1139.5,496.3 Q1163.6,495.2 1167.5,553.8"/><circle cx="1139.5" cy="481.7" r="11.8"/></g><g stroke-opacity="0.912" stroke-width="1.90" transform="rotate(3.95 1234.6 577.9)"><path d="M1207.2,577.9 Q1202.8,543.4 1234.6,544.1 Q1261.7,543.4 1261.9,577.9"/><circle cx="1234.6" cy="531.0" r="10.5"/></g><g stroke-opacity="0.912" stroke-width="1.90" transform="rotate(-2.93 1293.4 546.0)"><path d="M1275.9,546.0 Q1282.3,489.6 1293.4,490.7 Q1315.0,489.6 1310.9,546.0"/><circle cx="1293.4" cy="477.7" r="9.9"/></g><g stroke-opacity="0.912" stroke-width="1.84" transform="rotate(-3.93 1361.0 570.3)"><path d="M1338.6,570.3 Q1344.0,542.3 1361.0,542.9 Q1382.0,542.3 1383.4,570.3"/><circle cx="1361.0" cy="530.1" r="11.4"/></g><g stroke-opacity="0.912" stroke-width="1.86" transform="rotate(3.29 1462.9 566.9)"><path d="M1442.3,566.9 Q1441.0,529.5 1462.9,530.2 Q1478.0,529.5 1483.5,566.9"/><circle cx="1462.9" cy="518.7" r="11.3"/></g><g stroke-opacity="0.912" stroke-width="1.90" transform="rotate(1.65 1531.3 549.9)"><path d="M1504.4,549.9 Q1497.2,497.4 1531.3,498.5 Q1564.7,497.4 1558.2,549.9"/><circle cx="1531.3" cy="486.6" r="10.0"/></g><g stroke-opacity="0.912" stroke-width="1.90" transform="rotate(-2.15 1596.2 551.2)"><path d="M1574.8,551.2 Q1577.3,509.1 1596.2,509.9 Q1617.4,509.1 1617.6,551.2"/><circle cx="1596.2" cy="490.5" r="14.3"/></g><g stroke-opacity="0.912" stroke-width="1.90" transform="rotate(1.41 1679.8 556.3)"><path d="M1655.5,556.3 Q1647.3,495.8 1679.8,497.0 Q1703.2,495.8 1704.1,556.3"/><circle cx="1679.8" cy="480.7" r="11.5"/></g><g stroke-opacity="0.912" stroke-width="1.90" transform="rotate(0.94 1738.4 541.9)"><path d="M1718.1,541.9 Q1715.8,485.9 1738.4,487.0 Q1766.3,485.9 1758.6,541.9"/><circle cx="1738.4" cy="472.9" r="12.4"/></g><g stroke-opacity="1.000" stroke-width="1.90" transform="rotate(1.30 -86.7 639.9)"><path d="M-118.5,639.9 Q-113.5,573.6 -86.7,574.9 Q-53.3,573.6 -54.8,639.9"/><circle cx="-86.7" cy="552.3" r="16.4"/></g><g stroke-opacity="1.000" stroke-width="1.90" transform="rotate(3.44 -23.9 610.4)"><path d="M-55.1,610.4 Q-59.2,573.6 -23.9,574.4 Q5.1,573.6 7.2,610.4"/><circle cx="-23.9" cy="556.4" r="14.7"/></g><g stroke-opacity="1.000" stroke-width="1.90" transform="rotate(1.28 42.8 622.5)"><path d="M10.0,622.5 Q9.9,567.0 42.8,568.1 Q83.7,567.0 75.7,622.5"/><circle cx="42.8" cy="546.0" r="15.1"/></g><g stroke-opacity="1.000" stroke-width="1.90" transform="rotate(1.24 160.2 614.7)"><path d="M133.4,614.7 Q134.0,575.6 160.2,576.4 Q184.7,575.6 187.1,614.7"/><circle cx="160.2" cy="559.8" r="16.9"/></g><g stroke-opacity="1.000" stroke-width="1.90" transform="rotate(0.98 218.2 621.6)"><path d="M190.9,621.6 Q183.8,547.9 218.2,549.4 Q253.0,547.9 245.4,621.6"/><circle cx="218.2" cy="523.6" r="18.6"/></g><g stroke-opacity="1.000" stroke-width="1.90" transform="rotate(-1.99 313.2 641.8)"><path d="M293.5,641.8 Q293.9,599.2 313.2,600.1 Q333.0,599.2 332.9,641.8"/><circle cx="313.2" cy="584.0" r="14.9"/></g><g stroke-opacity="1.000" stroke-width="1.90" transform="rotate(0.22 381.6 639.0)"><path d="M352.4,639.0 Q350.7,571.1 381.6,572.4 Q417.6,571.1 410.8,639.0"/><circle cx="381.6" cy="556.5" r="13.7"/></g><g stroke-opacity="1.000" stroke-width="1.90" transform="rotate(1.93 473.5 622.4)"><path d="M448.8,622.4 Q451.5,577.3 473.5,578.2 Q496.1,577.3 498.2,622.4"/><circle cx="473.5" cy="565.0" r="12.1"/></g><g stroke-opacity="1.000" stroke-width="1.87" transform="rotate(-0.41 533.7 646.3)"><path d="M512.0,646.3 Q515.6,610.9 533.7,611.6 Q558.8,610.9 555.4,646.3"/><circle cx="533.7" cy="594.6" r="13.4"/></g><g stroke-opacity="1.000" stroke-width="1.90" transform="rotate(3.37 640.6 619.6)"><path d="M610.3,619.6 Q614.2,550.3 640.6,551.7 Q674.8,550.3 670.9,619.6"/><circle cx="640.6" cy="537.0" r="13.4"/></g><g stroke-opacity="1.000" stroke-width="1.90" transform="rotate(2.02 728.3 640.5)"><path d="M704.0,640.5 Q710.1,590.3 728.3,591.3 Q754.2,590.3 752.5,640.5"/><circle cx="728.3" cy="575.7" r="10.0"/></g><g stroke-opacity="1.000" stroke-width="1.89" transform="rotate(-0.74 811.8 609.1)"><path d="M796.0,609.1 Q796.5,556.6 811.8,557.7 Q835.1,556.6 827.7,609.1"/><circle cx="811.8" cy="547.7" r="9.6"/></g><g stroke-opacity="1.000" stroke-width="1.90" transform="rotate(-0.41 890.1 615.8)"><path d="M870.5,615.8 Q871.7,566.4 890.1,567.3 Q901.7,566.4 909.6,615.8"/><circle cx="890.1" cy="556.3" r="11.1"/></g><g stroke-opacity="1.000" stroke-width="1.90" transform="rotate(-3.74 960.4 623.0)"><path d="M943.1,623.0 Q951.6,559.4 960.4,560.7 Q977.7,559.4 977.6,623.0"/><circle cx="960.4" cy="545.2" r="14.1"/></g><g stroke-opacity="1.000" stroke-width="1.89" transform="rotate(-3.80 1053.4 631.9)"><path d="M1035.1,631.9 Q1038.5,598.6 1053.4,599.2 Q1070.6,598.6 1071.6,631.9"/><circle cx="1053.4" cy="586.1" r="11.0"/></g><g stroke-opacity="1.000" stroke-width="1.90" transform="rotate(-1.71 1138.0 612.8)"><path d="M1110.1,612.8 Q1104.2,547.8 1138.0,549.1 Q1159.1,547.8 1165.9,612.8"/><circle cx="1138.0" cy="533.9" r="14.4"/></g><g stroke-opacity="1.000" stroke-width="1.90" transform="rotate(-3.49 1200.7 643.8)"><path d="M1180.5,643.8 Q1188.9,604.9 1200.7,605.6 Q1226.3,604.9 1220.9,643.8"/><circle cx="1200.7" cy="589.6" r="14.6"/></g><g stroke-opacity="1.000" stroke-width="1.88" transform="rotate(-2.49 1285.2 627.4)"><path d="M1263.3,627.4 Q1262.5,597.8 1285.2,598.4 Q1299.6,597.8 1307.2,627.4"/><circle cx="1285.2" cy="584.8" r="11.5"/></g><g stroke-opacity="1.000" stroke-width="1.90" transform="rotate(-2.80 1394.3 643.3)"><path d="M1370.7,643.3 Q1368.5,590.3 1394.3,591.4 Q1417.7,590.3 1418.0,643.3"/><circle cx="1394.3" cy="575.6" r="14.7"/></g><g stroke-opacity="1.000" stroke-width="1.90" transform="rotate(1.12 1448.4 638.7)"><path d="M1414.0,638.7 Q1424.1,570.5 1448.4,571.8 Q1477.2,570.5 1482.9,638.7"/><circle cx="1448.4" cy="550.9" r="17.8"/></g><g stroke-opacity="1.000" stroke-width="1.90" transform="rotate(1.30 1548.2 626.4)"><path d="M1531.1,626.4 Q1535.4,576.7 1548.2,577.7 Q1559.9,576.7 1565.4,626.4"/><circle cx="1548.2" cy="565.3" r="10.9"/></g><g stroke-opacity="1.000" stroke-width="1.90" transform="rotate(0.41 1614.0 640.6)"><path d="M1589.1,640.6 Q1591.7,599.7 1614.0,600.5 Q1632.8,599.7 1638.9,640.6"/><circle cx="1614.0" cy="586.0" r="12.2"/></g><g stroke-opacity="1.000" stroke-width="1.86" transform="rotate(1.43 1708.0 609.4)"><path d="M1683.6,609.4 Q1683.9,561.7 1708.0,562.7 Q1737.3,561.7 1732.3,609.4"/><circle cx="1708.0" cy="549.8" r="9.2"/></g><path d="M207.8,300 H292.2 Q316.0,300 316.0,323.8 V346.2 Q316.0,370.0 292.2,370.0 H242.1 L223.6,406.4 L223.6,370.0 H207.8 Q184.0,370.0 184.0,346.2 V323.8 Q184.0,300 207.8,300 Z" stroke-opacity="0.900" stroke-width="1.7"/><path d="M545.2,250 H654.8 Q684.0,250 684.0,279.2 V306.8 Q684.0,336.0 654.8,336.0 H589.9 L566.4,380.7 L566.4,336.0 H545.2 Q516.0,336.0 516.0,306.8 V279.2 Q516.0,250 545.2,250 Z" stroke-opacity="0.900" stroke-width="1.7"/><path d="M916.8,320 H993.2 Q1015.0,320 1015.0,341.8 V362.2 Q1015.0,384.0 993.2,384.0 H947.8 L931.0,417.3 L931.0,384.0 H916.8 Q895.0,384.0 895.0,362.2 V341.8 Q895.0,320 916.8,320 Z" stroke-opacity="0.900" stroke-width="1.7"/><path d="M1181.5,264 H1278.5 Q1305.0,264 1305.0,290.5 V315.5 Q1305.0,342.0 1278.5,342.0 H1221.0 L1200.0,382.6 L1200.0,342.0 H1181.5 Q1155.0,342.0 1155.0,315.5 V290.5 Q1155.0,264 1181.5,264 Z" stroke-opacity="0.900" stroke-width="1.7"/><path d="M1422.0,360 H1488.0 Q1507.0,360 1507.0,379.0 V397.0 Q1507.0,416.0 1488.0,416.0 H1448.8 L1434.2,445.1 L1434.2,416.0 H1422.0 Q1403.0,416.0 1403.0,397.0 V379.0 Q1403.0,360 1422.0,360 Z" stroke-opacity="0.900" stroke-width="1.7"/><path d="M89.7,400 H150.3 Q168.0,400 168.0,417.7 V434.3 Q168.0,452.0 150.3,452.0 H114.2 L100.8,479.0 L100.8,452.0 H89.7 Q72.0,452.0 72.0,434.3 V417.7 Q72.0,400 89.7,400 Z" stroke-opacity="0.900" stroke-width="1.7"/><path d="M784.7,410 H855.3 Q875.0,410 875.0,429.7 V448.3 Q875.0,468.0 855.3,468.0 H813.4 L798.0,498.2 L798.0,468.0 H784.7 Q765.0,468.0 765.0,448.3 V429.7 Q765.0,410 784.7,410 Z" stroke-opacity="0.900" stroke-width="1.7"/><path d="M391.1,120 H468.9 Q490.0,120 490.0,141.1 V160.9 Q490.0,182.0 468.9,182.0 H422.8 L406.0,214.2 L406.0,182.0 H391.1 Q370.0,182.0 370.0,160.9 V141.1 Q370.0,120 391.1,120 Z" stroke-opacity="0.900" stroke-width="1.7"/><path d="M1034.5,150 H1125.5 Q1150.0,150 1150.0,174.5 V197.5 Q1150.0,222.0 1125.5,222.0 H1071.6 L1052.0,259.4 L1052.0,222.0 H1034.5 Q1010.0,222.0 1010.0,197.5 V174.5 Q1010.0,150 1034.5,150 Z" stroke-opacity="0.900" stroke-width="1.7"/><path d="M1328.4,110 H1391.6 Q1410.0,110 1410.0,128.4 V145.6 Q1410.0,164.0 1391.6,164.0 H1354.0 L1340.0,192.1 L1340.0,164.0 H1328.4 Q1310.0,164.0 1310.0,145.6 V128.4 Q1310.0,110 1328.4,110 Z" stroke-opacity="0.900" stroke-width="1.7"/></svg>